<svg width="19" height="19" viewBox="0 0 19 19" fill="none" xmlns="http://www.w3.org/2000/svg">
<path d="M13.6918 9.385L9.92681 5.777C9.48681 5.35367 9.11981 4.88033 8.82581 4.357C8.53181 3.83367 8.38481 3.26367 8.38481 2.647C8.38481 1.91167 8.64214 1.28667 9.15681 0.772C9.67081 0.257333 10.2951 0 11.0298 0C11.5758 0 12.0725 0.147667 12.5198 0.443C12.9671 0.738333 13.3575 1.097 13.6908 1.519C14.0241 1.097 14.4148 0.738333 14.8628 0.443C15.3095 0.147667 15.8061 0 16.3528 0C17.0881 0 17.7128 0.257333 18.2268 0.772C18.7408 1.28667 18.9985 1.91133 18.9998 2.646C18.9998 3.26333 18.8538 3.83367 18.5618 4.357C18.2691 4.88033 17.9028 5.35367 17.4628 5.777L13.6918 9.385ZM13.6918 8.008L16.6868 5.141C17.0415 4.79833 17.3491 4.419 17.6098 4.003C17.8698 3.587 17.9998 3.13467 17.9998 2.646C17.9998 2.19 17.8398 1.80167 17.5198 1.481C17.1998 1.16033 16.8108 1 16.3528 1C15.9528 1 15.5941 1.11967 15.2768 1.359C14.9595 1.59767 14.6745 1.87933 14.4218 2.204L13.6918 3.119L12.9608 2.204C12.7075 1.87933 12.4225 1.59767 12.1058 1.359C11.7885 1.11967 11.4298 1 11.0298 1C10.5731 1 10.1848 1.16 9.86481 1.48C9.54414 1.80133 9.38381 2.19 9.38381 2.646C9.38381 3.13467 9.51381 3.587 9.77381 4.003C10.0338 4.419 10.3415 4.79833 10.6968 5.141L13.6918 8.008ZM4.40381 15.654L11.9688 17.861L17.9578 16.011C17.9378 15.7077 17.8468 15.489 17.6848 15.355C17.5228 15.221 17.3395 15.154 17.1348 15.154H12.3898C11.9671 15.154 11.5838 15.1373 11.2398 15.104C10.8958 15.0707 10.5441 14.9913 10.1848 14.866L7.99481 14.148L8.33281 13.16L10.3578 13.892C10.6791 14.014 11.0445 14.0873 11.4538 14.112C11.8625 14.136 12.4225 14.15 13.1338 14.154C13.1338 13.842 13.0765 13.59 12.9618 13.398C12.8471 13.206 12.6828 13.072 12.4688 12.996L6.71481 10.884C6.67681 10.8713 6.64148 10.862 6.60881 10.856C6.57614 10.85 6.54114 10.8467 6.50381 10.846H4.40381V15.654ZM0.403809 18V9.846H6.47981C6.57314 9.846 6.66914 9.85667 6.76781 9.878C6.86647 9.89933 6.95814 9.924 7.04281 9.952L12.8218 12.069C13.1798 12.205 13.4878 12.4493 13.7458 12.802C14.0045 13.1547 14.1338 13.6053 14.1338 14.154H17.1338C17.7365 14.154 18.1978 14.3423 18.5178 14.719C18.8385 15.0963 18.9988 15.5747 18.9988 16.154V16.769L12.0188 18.923L4.40281 16.703V18H0.403809ZM1.40381 17H3.40381V10.846H1.40381V17Z" fill="#EFF2F5"/>
</svg>
