<svg width="150" height="48" viewBox="0 0 150 48" fill="none" xmlns="http://www.w3.org/2000/svg">
<rect width="150" height="48" rx="24" fill="#0B2E5A"/>
<g clip-path="url(#clip0_1239_434)">
<path d="M18.125 19.3405C19.047 17.4395 20.4857 15.8366 22.2764 14.7153C24.067 13.5939 26.1372 12.9995 28.25 13C34.4634 13 39.5 18.0366 39.5 24.25C39.5 30.4634 34.4634 35.5 28.25 35.5C26.1372 35.5005 24.067 34.9061 22.2764 33.7847C20.4857 32.6634 19.047 31.0605 18.125 29.1595M27.125 19.75C27.125 19.75 31.625 23.0642 31.625 24.25C31.625 25.4358 27.125 28.75 27.125 28.75M31.0625 24.25H17" stroke="#EFF2F5" stroke-width="1.6875" stroke-linecap="round" stroke-linejoin="round"/>
</g>
<path d="M49.3008 17.7734H51.2344V28.8301H56.9824V30.5H49.3008V17.7734ZM69.5156 24.1367C69.5156 25.4609 69.2695 26.6182 68.7773 27.6084C68.2852 28.5928 67.6025 29.3516 66.7295 29.8848C65.8623 30.4121 64.8809 30.6758 63.7852 30.6758C62.6777 30.6758 61.6875 30.4121 60.8145 29.8848C59.9473 29.3516 59.2676 28.5928 58.7754 27.6084C58.2832 26.6182 58.0371 25.4609 58.0371 24.1367C58.0371 22.8066 58.2832 21.6494 58.7754 20.665C59.2676 19.6748 59.9473 18.916 60.8145 18.3887C61.6875 17.8613 62.6777 17.5977 63.7852 17.5977C64.8809 17.5977 65.8623 17.8613 66.7295 18.3887C67.6025 18.916 68.2852 19.6748 68.7773 20.665C69.2695 21.6494 69.5156 22.8066 69.5156 24.1367ZM67.5996 24.1367C67.5996 23.1289 67.4355 22.2676 67.1074 21.5527C66.7793 20.8379 66.3252 20.2959 65.7451 19.9268C65.1709 19.5576 64.5176 19.373 63.7852 19.373C63.0469 19.373 62.3877 19.5576 61.8076 19.9268C61.2275 20.2959 60.7734 20.8379 60.4453 21.5527C60.1172 22.2676 59.9531 23.1289 59.9531 24.1367C59.9531 25.1445 60.1172 26.0059 60.4453 26.7207C60.7734 27.4355 61.2275 27.9775 61.8076 28.3467C62.3877 28.7158 63.0469 28.9004 63.7852 28.9004C64.5176 28.9004 65.1709 28.7158 65.7451 28.3467C66.3252 27.9775 66.7793 27.4355 67.1074 26.7207C67.4355 26 67.5996 25.1387 67.5996 24.1367ZM80.291 21.7988C80.0508 21.0312 79.6465 20.4365 79.0781 20.0146C78.5156 19.5869 77.8184 19.373 76.9863 19.373C76.2656 19.373 75.6152 19.5605 75.0352 19.9355C74.4609 20.3047 74.0098 20.8496 73.6816 21.5703C73.3535 22.2852 73.1895 23.1406 73.1895 24.1367C73.1895 25.1387 73.3535 25.9971 73.6816 26.7119C74.0156 27.4268 74.4756 27.9717 75.0615 28.3467C75.6475 28.7158 76.3184 28.9004 77.0742 28.9004C77.748 28.9004 78.3398 28.7656 78.8496 28.4961C79.3594 28.2266 79.7549 27.8428 80.0361 27.3447C80.3232 26.8408 80.4727 26.252 80.4844 25.5781H77.3555V23.9785H82.3652V25.4199C82.3652 26.4746 82.1396 27.4004 81.6885 28.1973C81.2373 28.9883 80.6074 29.6006 79.7988 30.0342C78.9961 30.4619 78.082 30.6758 77.0566 30.6758C75.9141 30.6758 74.9062 30.4121 74.0332 29.8848C73.1602 29.3516 72.4805 28.5928 71.9941 27.6084C71.5137 26.6182 71.2734 25.4609 71.2734 24.1367C71.2734 22.8125 71.5166 21.6582 72.0029 20.6738C72.4893 19.6836 73.1631 18.9248 74.0244 18.3975C74.8916 17.8643 75.873 17.5977 76.9688 17.5977C77.877 17.5977 78.7061 17.7764 79.4561 18.1338C80.2119 18.4854 80.833 18.9805 81.3193 19.6191C81.8115 20.252 82.1309 20.9785 82.2773 21.7988H80.291ZM95.6543 24.1367C95.6543 25.4609 95.4082 26.6182 94.916 27.6084C94.4238 28.5928 93.7412 29.3516 92.8682 29.8848C92.001 30.4121 91.0195 30.6758 89.9238 30.6758C88.8164 30.6758 87.8262 30.4121 86.9531 29.8848C86.0859 29.3516 85.4062 28.5928 84.9141 27.6084C84.4219 26.6182 84.1758 25.4609 84.1758 24.1367C84.1758 22.8066 84.4219 21.6494 84.9141 20.665C85.4062 19.6748 86.0859 18.916 86.9531 18.3887C87.8262 17.8613 88.8164 17.5977 89.9238 17.5977C91.0195 17.5977 92.001 17.8613 92.8682 18.3887C93.7412 18.916 94.4238 19.6748 94.916 20.665C95.4082 21.6494 95.6543 22.8066 95.6543 24.1367ZM93.7383 24.1367C93.7383 23.1289 93.5742 22.2676 93.2461 21.5527C92.918 20.8379 92.4639 20.2959 91.8838 19.9268C91.3096 19.5576 90.6562 19.373 89.9238 19.373C89.1855 19.373 88.5264 19.5576 87.9463 19.9268C87.3662 20.2959 86.9121 20.8379 86.584 21.5527C86.2559 22.2676 86.0918 23.1289 86.0918 24.1367C86.0918 25.1445 86.2559 26.0059 86.584 26.7207C86.9121 27.4355 87.3662 27.9775 87.9463 28.3467C88.5264 28.7158 89.1855 28.9004 89.9238 28.9004C90.6562 28.9004 91.3096 28.7158 91.8838 28.3467C92.4639 27.9775 92.918 27.4355 93.2461 26.7207C93.5742 26 93.7383 25.1387 93.7383 24.1367ZM107.941 17.7734V26.1406C107.941 27.0254 107.73 27.8135 107.309 28.5049C106.893 29.1963 106.301 29.7383 105.533 30.1309C104.771 30.5176 103.893 30.7109 102.896 30.7109C101.889 30.7109 101.001 30.5176 100.233 30.1309C99.4658 29.7441 98.874 29.2051 98.458 28.5137C98.042 27.8164 97.834 27.0254 97.834 26.1406V17.7734H99.7676V25.9824C99.7676 26.5566 99.8936 27.0693 100.146 27.5205C100.403 27.9658 100.767 28.3174 101.235 28.5752C101.71 28.8271 102.264 28.9531 102.896 28.9531C103.523 28.9531 104.071 28.8271 104.54 28.5752C105.009 28.3174 105.369 27.9658 105.621 27.5205C105.879 27.0693 106.008 26.5566 106.008 25.9824V17.7734H107.941ZM109.91 17.7734H119.771V19.4434H115.816V30.5H113.883V19.4434H109.91V17.7734Z" fill="#EFF2F5"/>
<defs>
<clipPath id="clip0_1239_434">
<rect width="24" height="24" fill="white" transform="translate(16 12)"/>
</clipPath>
</defs>
</svg>
