<svg width="240" height="411" viewBox="0 0 240 411" fill="none" xmlns="http://www.w3.org/2000/svg">
<rect width="240" height="411" fill="#E8E8E8"/>
<mask id="path-2-outside-1_678_200" maskUnits="userSpaceOnUse" x="178" y="28" width="30" height="21" fill="black">
<rect fill="white" x="178" y="28" width="30" height="21"/>
<path d="M185.611 47.2735C184.308 47.2735 183.189 46.9309 182.255 46.2459C181.327 45.5608 180.617 44.5635 180.125 43.2541C179.634 41.9392 179.388 40.3619 179.388 38.5221C179.388 36.6934 179.634 35.1271 180.125 33.8232C180.623 32.5138 181.338 31.5166 182.272 30.8315C183.205 30.1409 184.319 29.7956 185.611 29.7956C186.904 29.7956 188.018 30.1409 188.951 30.8315C189.89 31.5166 190.606 32.5138 191.098 33.8232C191.595 35.1271 191.844 36.6934 191.844 38.5221C191.844 40.3619 191.598 41.9392 191.106 43.2541C190.614 44.5635 189.902 45.5608 188.968 46.2459C188.034 46.9309 186.915 47.2735 185.611 47.2735ZM181.957 38.5221C181.957 39.9199 182.1 41.1077 182.388 42.0856C182.675 43.058 183.092 43.7956 183.639 44.2983C184.192 44.8011 184.849 45.0525 185.611 45.0525C186.379 45.0525 187.037 44.8011 187.584 44.2983C188.131 43.7956 188.548 43.058 188.835 42.0856C189.128 41.1077 189.274 39.9199 189.274 38.5221C189.274 37.1298 189.128 35.9448 188.835 34.9669C188.542 33.989 188.123 33.2486 187.576 32.7459C187.029 32.2431 186.374 31.9917 185.611 31.9917C184.855 31.9917 184.203 32.2431 183.656 32.7459C183.109 33.2486 182.689 33.989 182.396 34.9669C182.103 35.9448 181.957 37.1298 181.957 38.5221ZM200.54 47.232C199.385 47.232 198.349 47.0359 197.432 46.6436C196.521 46.2514 195.8 45.7017 195.269 44.9945C194.744 44.2873 194.468 43.4779 194.441 42.5663H197.051C197.079 43.0525 197.247 43.4807 197.557 43.8508C197.872 44.221 198.286 44.5083 198.8 44.7127C199.313 44.9116 199.885 45.011 200.515 45.011C201.195 45.011 201.802 44.895 202.338 44.663C202.88 44.4309 203.3 44.105 203.598 43.6851C203.902 43.2652 204.054 42.7873 204.054 42.2514C204.059 41.6878 203.91 41.1878 203.606 40.7514C203.308 40.3149 202.869 39.9751 202.289 39.732C201.714 39.489 201.029 39.3674 200.233 39.3674H198.791V37.2624H200.233C200.874 37.2624 201.443 37.1519 201.941 36.9309C202.438 36.7044 202.825 36.3867 203.101 35.9779C203.383 35.5691 203.523 35.0967 203.523 34.5608C203.523 34.047 203.402 33.5939 203.159 33.2017C202.916 32.8039 202.57 32.4972 202.123 32.2818C201.681 32.0663 201.164 31.9586 200.573 31.9586C199.999 31.9586 199.463 32.0608 198.965 32.2652C198.474 32.4641 198.076 32.7514 197.772 33.1271C197.468 33.5028 197.305 33.9392 197.283 34.4365H194.797C194.825 33.5359 195.098 32.7348 195.617 32.0331C196.137 31.326 196.833 30.7762 197.706 30.384C198.579 29.9917 199.543 29.7956 200.598 29.7956C201.675 29.7956 202.626 30.0055 203.449 30.4254C204.278 30.8398 204.913 31.4006 205.355 32.1077C205.802 32.8094 206.023 33.5829 206.018 34.4282C206.023 35.058 205.902 35.6298 205.653 36.1436C205.41 36.6575 205.062 37.0884 204.609 37.4365C204.156 37.779 203.626 38.0249 203.018 38.174V38.3066C203.775 38.4116 204.427 38.6464 204.974 39.011C205.526 39.3757 205.946 39.8425 206.233 40.4116C206.521 40.9807 206.662 41.6243 206.656 42.3425C206.662 43.2707 206.399 44.1077 205.869 44.8536C205.344 45.5939 204.615 46.1768 203.681 46.6022C202.747 47.0221 201.7 47.232 200.54 47.232Z"/>
</mask>
<path d="M185.611 47.2735C184.308 47.2735 183.189 46.9309 182.255 46.2459C181.327 45.5608 180.617 44.5635 180.125 43.2541C179.634 41.9392 179.388 40.3619 179.388 38.5221C179.388 36.6934 179.634 35.1271 180.125 33.8232C180.623 32.5138 181.338 31.5166 182.272 30.8315C183.205 30.1409 184.319 29.7956 185.611 29.7956C186.904 29.7956 188.018 30.1409 188.951 30.8315C189.89 31.5166 190.606 32.5138 191.098 33.8232C191.595 35.1271 191.844 36.6934 191.844 38.5221C191.844 40.3619 191.598 41.9392 191.106 43.2541C190.614 44.5635 189.902 45.5608 188.968 46.2459C188.034 46.9309 186.915 47.2735 185.611 47.2735ZM181.957 38.5221C181.957 39.9199 182.1 41.1077 182.388 42.0856C182.675 43.058 183.092 43.7956 183.639 44.2983C184.192 44.8011 184.849 45.0525 185.611 45.0525C186.379 45.0525 187.037 44.8011 187.584 44.2983C188.131 43.7956 188.548 43.058 188.835 42.0856C189.128 41.1077 189.274 39.9199 189.274 38.5221C189.274 37.1298 189.128 35.9448 188.835 34.9669C188.542 33.989 188.123 33.2486 187.576 32.7459C187.029 32.2431 186.374 31.9917 185.611 31.9917C184.855 31.9917 184.203 32.2431 183.656 32.7459C183.109 33.2486 182.689 33.989 182.396 34.9669C182.103 35.9448 181.957 37.1298 181.957 38.5221ZM200.54 47.232C199.385 47.232 198.349 47.0359 197.432 46.6436C196.521 46.2514 195.8 45.7017 195.269 44.9945C194.744 44.2873 194.468 43.4779 194.441 42.5663H197.051C197.079 43.0525 197.247 43.4807 197.557 43.8508C197.872 44.221 198.286 44.5083 198.8 44.7127C199.313 44.9116 199.885 45.011 200.515 45.011C201.195 45.011 201.802 44.895 202.338 44.663C202.88 44.4309 203.3 44.105 203.598 43.6851C203.902 43.2652 204.054 42.7873 204.054 42.2514C204.059 41.6878 203.91 41.1878 203.606 40.7514C203.308 40.3149 202.869 39.9751 202.289 39.732C201.714 39.489 201.029 39.3674 200.233 39.3674H198.791V37.2624H200.233C200.874 37.2624 201.443 37.1519 201.941 36.9309C202.438 36.7044 202.825 36.3867 203.101 35.9779C203.383 35.5691 203.523 35.0967 203.523 34.5608C203.523 34.047 203.402 33.5939 203.159 33.2017C202.916 32.8039 202.57 32.4972 202.123 32.2818C201.681 32.0663 201.164 31.9586 200.573 31.9586C199.999 31.9586 199.463 32.0608 198.965 32.2652C198.474 32.4641 198.076 32.7514 197.772 33.1271C197.468 33.5028 197.305 33.9392 197.283 34.4365H194.797C194.825 33.5359 195.098 32.7348 195.617 32.0331C196.137 31.326 196.833 30.7762 197.706 30.384C198.579 29.9917 199.543 29.7956 200.598 29.7956C201.675 29.7956 202.626 30.0055 203.449 30.4254C204.278 30.8398 204.913 31.4006 205.355 32.1077C205.802 32.8094 206.023 33.5829 206.018 34.4282C206.023 35.058 205.902 35.6298 205.653 36.1436C205.41 36.6575 205.062 37.0884 204.609 37.4365C204.156 37.779 203.626 38.0249 203.018 38.174V38.3066C203.775 38.4116 204.427 38.6464 204.974 39.011C205.526 39.3757 205.946 39.8425 206.233 40.4116C206.521 40.9807 206.662 41.6243 206.656 42.3425C206.662 43.2707 206.399 44.1077 205.869 44.8536C205.344 45.5939 204.615 46.1768 203.681 46.6022C202.747 47.0221 201.7 47.232 200.54 47.232Z" fill="#282828"/>
<path d="M182.255 46.2459L181.661 47.0504L181.664 47.0521L182.255 46.2459ZM180.125 43.2541L179.189 43.6044L179.189 43.6057L180.125 43.2541ZM180.125 33.8232L179.19 33.4682L179.19 33.4703L180.125 33.8232ZM182.272 30.8315L182.863 31.6378L182.866 31.6355L182.272 30.8315ZM188.951 30.8315L188.357 31.6355L188.362 31.6394L188.951 30.8315ZM191.098 33.8232L190.161 34.1748L190.163 34.1795L191.098 33.8232ZM191.106 43.2541L192.042 43.6057L192.043 43.6044L191.106 43.2541ZM188.968 46.2459L188.376 45.4396L188.968 46.2459ZM182.388 42.0856L181.428 42.3675L181.429 42.369L182.388 42.0856ZM183.639 44.2983L182.962 45.0346L182.966 45.0379L183.639 44.2983ZM187.584 44.2983L188.261 45.0346L187.584 44.2983ZM188.835 42.0856L187.877 41.7988L187.876 41.8023L188.835 42.0856ZM188.835 34.9669L189.793 34.68L188.835 34.9669ZM183.656 32.7459L182.979 32.0096L183.656 32.7459ZM182.396 34.9669L181.438 34.68L182.396 34.9669ZM185.611 47.2735V46.2735C184.492 46.2735 183.588 45.9832 182.847 45.4396L182.255 46.2459L181.664 47.0521C182.79 47.8787 184.123 48.2735 185.611 48.2735V47.2735ZM182.255 46.2459L182.849 45.4413C182.107 44.8933 181.5 44.0698 181.061 42.9026L180.125 43.2541L179.189 43.6057C179.734 45.0572 180.547 46.2282 181.661 47.0504L182.255 46.2459ZM180.125 43.2541L181.062 42.9039C180.623 41.7298 180.388 40.2774 180.388 38.5221H179.388H178.388C178.388 40.4463 178.644 42.1487 179.189 43.6044L180.125 43.2541ZM179.388 38.5221H180.388C180.388 36.7783 180.623 35.338 181.061 34.1761L180.125 33.8232L179.19 33.4703C178.644 34.9161 178.388 36.6084 178.388 38.5221H179.388ZM180.125 33.8232L181.06 34.1782C181.503 33.0111 182.115 32.1867 182.863 31.6377L182.272 30.8315L181.68 30.0252C180.561 30.8464 179.742 32.0166 179.19 33.4682L180.125 33.8232ZM182.272 30.8315L182.866 31.6355C183.609 31.0865 184.507 30.7956 185.611 30.7956V29.7956V28.7956C184.13 28.7956 182.802 29.1952 181.677 30.0275L182.272 30.8315ZM185.611 29.7956V30.7956C186.716 30.7956 187.614 31.0865 188.357 31.6355L188.951 30.8315L189.546 30.0275C188.421 29.1952 187.093 28.7956 185.611 28.7956V29.7956ZM188.951 30.8315L188.362 31.6394C189.114 32.1879 189.724 33.0105 190.162 34.1748L191.098 33.8232L192.034 33.4716C191.488 32.0171 190.667 30.8452 189.541 30.0236L188.951 30.8315ZM191.098 33.8232L190.163 34.1795C190.606 35.3404 190.844 36.7793 190.844 38.5221H191.844H192.844C192.844 36.6074 192.584 34.9138 192.032 33.4669L191.098 33.8232ZM191.844 38.5221H190.844C190.844 40.2774 190.608 41.7298 190.169 42.9039L191.106 43.2541L192.043 43.6044C192.587 42.1487 192.844 40.4463 192.844 38.5221H191.844ZM191.106 43.2541L190.17 42.9026C189.732 44.0683 189.123 44.8914 188.376 45.4396L188.968 46.2459L189.559 47.0521C190.68 46.2302 191.496 45.0587 192.042 43.6057L191.106 43.2541ZM188.968 46.2459L188.376 45.4396C187.635 45.9832 186.731 46.2735 185.611 46.2735V47.2735V48.2735C187.1 48.2735 188.433 47.8787 189.559 47.0521L188.968 46.2459ZM181.957 38.5221H180.957C180.957 39.9826 181.106 41.2712 181.428 42.3675L182.388 42.0856L183.347 41.8038C183.095 40.9442 182.957 39.8572 182.957 38.5221H181.957ZM182.388 42.0856L181.429 42.369C181.749 43.4541 182.242 44.3723 182.962 45.0346L183.639 44.2983L184.316 43.5621C183.942 43.2188 183.601 42.6619 183.347 41.8023L182.388 42.0856ZM183.639 44.2983L182.966 45.0379C183.707 45.712 184.606 46.0525 185.611 46.0525V45.0525V44.0525C185.092 44.0525 184.676 43.8902 184.312 43.5587L183.639 44.2983ZM185.611 45.0525V46.0525C186.621 46.0525 187.522 45.7132 188.261 45.0346L187.584 44.2983L186.907 43.5621C186.551 43.889 186.138 44.0525 185.611 44.0525V45.0525ZM187.584 44.2983L188.261 45.0346C188.981 44.3723 189.474 43.4541 189.794 42.369L188.835 42.0856L187.876 41.8023C187.622 42.6619 187.281 43.2188 186.907 43.5621L187.584 44.2983ZM188.835 42.0856L189.793 42.3725C190.122 41.2743 190.274 39.9839 190.274 38.5221H189.274H188.274C188.274 39.8559 188.134 40.9411 187.877 41.7988L188.835 42.0856ZM189.274 38.5221H190.274C190.274 37.0654 190.122 35.7778 189.793 34.68L188.835 34.9669L187.877 35.2537C188.134 36.1117 188.274 37.1943 188.274 38.5221H189.274ZM188.835 34.9669L189.793 34.68C189.467 33.5916 188.972 32.6715 188.252 32.0096L187.576 32.7459L186.899 33.4821C187.273 33.8258 187.618 34.3863 187.877 35.2537L188.835 34.9669ZM187.576 32.7459L188.252 32.0096C187.516 31.3324 186.617 30.9917 185.611 30.9917V31.9917V32.9917C186.131 32.9917 186.542 33.1538 186.899 33.4821L187.576 32.7459ZM185.611 31.9917V30.9917C184.609 30.9917 183.714 31.3337 182.979 32.0096L183.656 32.7459L184.332 33.4821C184.691 33.1525 185.1 32.9917 185.611 32.9917V31.9917ZM183.656 32.7459L182.979 32.0096C182.259 32.6715 181.764 33.5916 181.438 34.68L182.396 34.9669L183.354 35.2537C183.614 34.3863 183.959 33.8258 184.332 33.4821L183.656 32.7459ZM182.396 34.9669L181.438 34.68C181.109 35.7778 180.957 37.0654 180.957 38.5221H181.957H182.957C182.957 37.1943 183.097 36.1117 183.354 35.2537L182.396 34.9669ZM197.432 46.6436L197.037 47.5622L197.039 47.5631L197.432 46.6436ZM195.269 44.9945L194.466 45.5905L194.469 45.5945L195.269 44.9945ZM194.441 42.5663V41.5663H193.41L193.441 42.5966L194.441 42.5663ZM197.051 42.5663L198.049 42.5096L197.996 41.5663H197.051V42.5663ZM197.557 43.8508L196.789 44.4922L196.795 44.4988L197.557 43.8508ZM198.8 44.7127L198.43 45.6419L198.439 45.6453L198.8 44.7127ZM202.338 44.663L201.944 43.7438L201.941 43.7453L202.338 44.663ZM203.598 43.6851L202.788 43.0988L202.783 43.1059L203.598 43.6851ZM204.054 42.2514L203.054 42.2416V42.2514H204.054ZM203.606 40.7514L202.781 41.3157L202.786 41.3228L203.606 40.7514ZM202.289 39.732L201.899 40.653L201.902 40.6543L202.289 39.732ZM198.791 39.3674H197.791V40.3674H198.791V39.3674ZM198.791 37.2624V36.2624H197.791V37.2624H198.791ZM201.941 36.9309L202.347 37.8448L202.355 37.841L201.941 36.9309ZM203.101 35.9779L202.277 35.4104L202.272 35.418L203.101 35.9779ZM203.159 33.2017L202.305 33.7231L202.309 33.7284L203.159 33.2017ZM202.123 32.2818L201.685 33.1807L201.689 33.1828L202.123 32.2818ZM198.965 32.2652L199.34 33.1922L199.346 33.1901L198.965 32.2652ZM197.283 34.4365V35.4365H198.24L198.282 34.4809L197.283 34.4365ZM194.797 34.4365L193.797 34.4058L193.766 35.4365H194.797V34.4365ZM195.617 32.0331L196.421 32.6281L196.423 32.6251L195.617 32.0331ZM197.706 30.384L197.296 29.4718L197.706 30.384ZM203.449 30.4254L202.994 31.3163L203.002 31.3198L203.449 30.4254ZM205.355 32.1077L204.507 32.6378L204.512 32.6455L205.355 32.1077ZM206.018 34.4282L205.018 34.4216L205.018 34.4293L205.018 34.4369L206.018 34.4282ZM205.653 36.1436L204.753 35.7081L204.749 35.716L205.653 36.1436ZM204.609 37.4365L205.212 38.2341L205.218 38.2294L204.609 37.4365ZM203.018 38.174L202.78 37.2029L202.018 37.3898V38.174H203.018ZM203.018 38.3066H202.018V39.1775L202.881 39.2971L203.018 38.3066ZM204.974 39.011L204.419 39.8431L204.423 39.8457L204.974 39.011ZM206.656 42.3425L205.656 42.3348L205.656 42.3485L206.656 42.3425ZM205.869 44.8536L205.054 44.2741L205.053 44.2752L205.869 44.8536ZM203.681 46.6022L204.091 47.5142L204.096 47.5122L203.681 46.6022ZM200.54 47.232V46.232C199.499 46.232 198.6 46.0556 197.826 45.7242L197.432 46.6436L197.039 47.5631C198.098 48.0162 199.271 48.232 200.54 48.232V47.232ZM197.432 46.6436L197.828 45.7251C197.056 45.3932 196.483 44.9454 196.069 44.3945L195.269 44.9945L194.469 45.5945C195.117 46.4579 195.985 47.1096 197.037 47.5622L197.432 46.6436ZM195.269 44.9945L196.072 44.3985C195.674 43.8615 195.462 43.2511 195.44 42.536L194.441 42.5663L193.441 42.5966C193.475 43.7047 193.815 44.7131 194.466 45.5905L195.269 44.9945ZM194.441 42.5663V43.5663H197.051V42.5663V41.5663H194.441V42.5663ZM197.051 42.5663L196.053 42.623C196.092 43.3217 196.341 43.9554 196.789 44.4921L197.557 43.8508L198.324 43.2095C198.154 43.006 198.065 42.7833 198.049 42.5096L197.051 42.5663ZM197.557 43.8508L196.795 44.4988C197.229 45.0095 197.786 45.3855 198.43 45.6419L198.8 44.7127L199.169 43.7835C198.786 43.6311 198.514 43.4325 198.318 43.2029L197.557 43.8508ZM198.8 44.7127L198.439 45.6453C199.083 45.8946 199.779 46.011 200.515 46.011V45.011V44.011C199.991 44.011 199.544 43.9286 199.161 43.7801L198.8 44.7127ZM200.515 45.011V46.011C201.309 46.011 202.056 45.8752 202.736 45.5807L202.338 44.663L201.941 43.7453C201.549 43.9149 201.08 44.011 200.515 44.011V45.011ZM202.338 44.663L202.732 45.5821C203.418 45.2883 203.994 44.8546 204.413 44.2643L203.598 43.6851L202.783 43.1059C202.606 43.3553 202.342 43.5736 201.944 43.7438L202.338 44.663ZM203.598 43.6851L204.408 44.2714C204.84 43.6748 205.054 42.9902 205.054 42.2514H204.054H203.054C203.054 42.5844 202.964 42.8556 202.788 43.0988L203.598 43.6851ZM204.054 42.2514L205.054 42.2612C205.061 41.5031 204.857 40.7974 204.427 40.18L203.606 40.7514L202.786 41.3228C202.964 41.5783 203.057 41.8725 203.054 42.2416L204.054 42.2514ZM203.606 40.7514L204.432 40.1871C204.006 39.5634 203.399 39.113 202.675 38.8097L202.289 39.732L201.902 40.6543C202.339 40.8373 202.61 41.0665 202.781 41.3157L203.606 40.7514ZM202.289 39.732L202.678 38.8111C201.952 38.5036 201.127 38.3674 200.233 38.3674V39.3674V40.3674C200.93 40.3674 201.477 40.4743 201.899 40.653L202.289 39.732ZM200.233 39.3674V38.3674H198.791V39.3674V40.3674H200.233V39.3674ZM198.791 39.3674H199.791V37.2624H198.791H197.791V39.3674H198.791ZM198.791 37.2624V38.2624H200.233V37.2624V36.2624H198.791V37.2624ZM200.233 37.2624V38.2624C200.99 38.2624 201.701 38.1318 202.347 37.8448L201.941 36.9309L201.534 36.0171C201.186 36.1721 200.759 36.2624 200.233 36.2624V37.2624ZM201.941 36.9309L202.355 37.841C203.001 37.5465 203.539 37.1153 203.929 36.5378L203.101 35.9779L202.272 35.418C202.11 35.6582 201.874 35.8623 201.526 36.0209L201.941 36.9309ZM203.101 35.9779L203.924 36.5454C204.33 35.9563 204.523 35.2825 204.523 34.5608H203.523H202.523C202.523 34.9109 202.435 35.1819 202.277 35.4104L203.101 35.9779ZM203.523 34.5608H204.523C204.523 33.8826 204.361 33.2429 204.009 32.6749L203.159 33.2017L202.309 33.7284C202.443 33.945 202.523 34.2113 202.523 34.5608H203.523ZM203.159 33.2017L204.012 32.6802C203.662 32.1073 203.166 31.674 202.557 31.3808L202.123 32.2818L201.689 33.1828C201.975 33.3205 202.169 33.5005 202.306 33.7231L203.159 33.2017ZM202.123 32.2818L202.561 31.3829C201.958 31.0888 201.286 30.9586 200.573 30.9586V31.9586V32.9586C201.043 32.9586 201.404 33.0438 201.685 33.1806L202.123 32.2818ZM200.573 31.9586V30.9586C199.877 30.9586 199.211 31.083 198.585 31.3403L198.965 32.2652L199.346 33.1901C199.714 33.0386 200.12 32.9586 200.573 32.9586V31.9586ZM198.965 32.2652L198.59 31.3382C197.957 31.5943 197.415 31.978 196.995 32.4982L197.772 33.1271L198.55 33.7559C198.737 33.5248 198.99 33.3339 199.34 33.1922L198.965 32.2652ZM197.772 33.1271L196.995 32.4982C196.552 33.0453 196.315 33.6882 196.284 34.3921L197.283 34.4365L198.282 34.4809C198.295 34.1902 198.384 33.9602 198.55 33.7559L197.772 33.1271ZM197.283 34.4365V33.4365H194.797V34.4365V35.4365H197.283V34.4365ZM194.797 34.4365L195.796 34.4671C195.818 33.7633 196.027 33.1605 196.421 32.6281L195.617 32.0331L194.814 31.4382C194.169 32.3091 193.831 33.3086 193.797 34.4058L194.797 34.4365ZM195.617 32.0331L196.423 32.6251C196.831 32.0694 197.385 31.6242 198.116 31.2961L197.706 30.384L197.296 29.4718C196.28 29.9283 195.442 30.5825 194.811 31.4412L195.617 32.0331ZM197.706 30.384L198.116 31.2961C198.847 30.9675 199.669 30.7956 200.598 30.7956V29.7956V28.7956C199.416 28.7956 198.31 29.016 197.296 29.4718L197.706 30.384ZM200.598 29.7956V30.7956C201.544 30.7956 202.334 30.9791 202.994 31.3162L203.449 30.4254L203.903 29.5346C202.918 29.0319 201.807 28.7956 200.598 28.7956V29.7956ZM203.449 30.4254L203.002 31.3198C203.685 31.6613 204.173 32.1035 204.507 32.6377L205.355 32.1077L206.203 31.5777C205.653 30.6976 204.871 30.0182 203.896 29.531L203.449 30.4254ZM205.355 32.1077L204.512 32.6455C204.854 33.1819 205.022 33.7659 205.018 34.4216L206.018 34.4282L207.018 34.4347C207.025 33.3999 206.751 32.4369 206.198 31.57L205.355 32.1077ZM206.018 34.4282L205.018 34.4369C205.022 34.9291 204.928 35.3466 204.753 35.7081L205.653 36.1436L206.553 36.5792C206.876 35.9131 207.025 35.1869 207.018 34.4194L206.018 34.4282ZM205.653 36.1436L204.749 35.716C204.574 36.0856 204.328 36.3916 204 36.6435L204.609 37.4365L205.218 38.2294C205.797 37.7852 206.246 37.2293 206.557 36.5713L205.653 36.1436ZM204.609 37.4365L204.006 36.6388C203.672 36.8913 203.269 37.0828 202.78 37.2029L203.018 38.174L203.256 39.1452C203.983 38.9669 204.64 38.6667 205.212 38.2341L204.609 37.4365ZM203.018 38.174H202.018V38.3066H203.018H204.018V38.174H203.018ZM203.018 38.3066L202.881 39.2971C203.512 39.3848 204.016 39.5746 204.419 39.8431L204.974 39.011L205.528 38.179C204.837 37.7182 204.037 37.4384 203.155 37.3161L203.018 38.3066ZM204.974 39.011L204.423 39.8457C204.836 40.1181 205.135 40.4549 205.341 40.8623L206.233 40.4116L207.126 39.9609C206.757 39.2302 206.217 38.6332 205.525 38.1764L204.974 39.011ZM206.233 40.4116L205.341 40.8623C205.548 41.2721 205.661 41.7554 205.656 42.3348L206.656 42.3425L207.656 42.3502C207.663 41.4932 207.494 40.6892 207.126 39.9609L206.233 40.4116ZM206.656 42.3425L205.656 42.3485C205.66 43.0701 205.461 43.7017 205.054 44.2741L205.869 44.8536L206.684 45.4331C207.337 44.5137 207.663 43.4713 207.656 42.3366L206.656 42.3425ZM205.869 44.8536L205.053 44.2752C204.643 44.8535 204.061 45.3302 203.266 45.6922L203.681 46.6022L204.096 47.5122C205.168 47.0233 206.045 46.3343 206.685 45.4319L205.869 44.8536ZM203.681 46.6022L203.271 45.6902C202.482 46.0448 201.578 46.232 200.54 46.232V47.232V48.232C201.823 48.232 203.012 47.9994 204.091 47.5142L203.681 46.6022Z" fill="#E8E8E8" mask="url(#path-2-outside-1_678_200)"/>
<path d="M56.3164 319.879H59.7617V322.395H56.3164V330.926H53.2812V312.742H56.3164V319.879ZM57.3008 336.941H40.4844V329.094H43.5195V334.48H57.3008V336.941ZM40.6758 318.266H46.4453V314.492H49.4531V326.906H37.668V314.492H40.6758V318.266ZM46.4453 324.5V320.617H40.6758V324.5H46.4453ZM79.6898 326.359H72.3617V332.02H82.2055V334.508H59.6195V332.02H69.3539V326.359H62.3539V314.547H79.4984V316.98H65.3891V323.953H79.6898V326.359ZM89.9656 320.262C89.9656 321.574 90.1479 322.846 90.5125 324.076C90.8862 325.298 91.4467 326.41 92.1941 327.412C92.9507 328.406 93.8849 329.203 94.9969 329.805L93.3016 332.047C92.1896 331.454 91.2371 330.643 90.4441 329.613C89.6512 328.583 89.0268 327.398 88.5711 326.059C88.1154 327.517 87.4865 328.811 86.6844 329.941C85.8914 331.062 84.9344 331.956 83.8133 332.621L82.0359 330.324C83.157 329.677 84.0958 328.82 84.8523 327.754C85.618 326.678 86.1831 325.498 86.5477 324.213C86.9122 322.928 87.0945 321.611 87.0945 320.262V319.496H82.8836V317.035H87.0945V313.59H89.9656V317.035H94.0945V319.496H89.9656V320.262ZM103.692 337.434H100.794V312.715H103.692V337.434ZM98.6609 336.23H95.7898V324.719H92.5633V322.203H95.7898V313.18H98.6609V336.23ZM122.248 320.645C122.166 319.806 121.787 319.15 121.113 318.676C120.448 318.202 119.577 317.965 118.502 317.965C117.772 317.965 117.134 318.074 116.588 318.293C116.041 318.512 115.621 318.817 115.33 319.209C115.038 319.601 114.892 320.043 114.892 320.535C114.892 321.292 115.207 321.88 115.836 322.299C116.464 322.709 117.28 323.033 118.283 323.27L120.142 323.762C121.847 324.154 123.237 324.805 124.312 325.717C125.397 326.619 125.939 327.863 125.939 329.449C125.939 330.607 125.643 331.628 125.05 332.512C124.458 333.396 123.597 334.084 122.466 334.576C121.345 335.059 120.005 335.301 118.447 335.301C116.907 335.301 115.571 335.064 114.441 334.59C113.311 334.107 112.427 333.41 111.789 332.498C111.16 331.577 110.818 330.47 110.763 329.176H114.263C114.345 330.178 114.765 330.944 115.521 331.473C116.287 332.001 117.253 332.266 118.42 332.266C119.194 332.266 119.882 332.147 120.484 331.91C121.086 331.673 121.55 331.34 121.879 330.912C122.216 330.475 122.384 329.978 122.384 329.422C122.384 328.702 122.084 328.141 121.482 327.74C120.89 327.33 119.996 326.97 118.802 326.66L116.56 326.086C113.042 325.165 111.283 323.388 111.283 320.754C111.283 319.605 111.597 318.594 112.226 317.719C112.855 316.835 113.721 316.151 114.824 315.668C115.936 315.176 117.18 314.93 118.556 314.93C119.942 314.93 121.168 315.176 122.234 315.668C123.31 316.151 124.143 316.826 124.736 317.691C125.338 318.557 125.647 319.542 125.666 320.645H122.248ZM133.809 335.301C132.387 335.301 131.138 334.982 130.062 334.344C128.987 333.706 128.158 332.812 127.574 331.664C126.991 330.507 126.699 329.167 126.699 327.645C126.699 326.113 126.991 324.769 127.574 323.611C128.158 322.454 128.987 321.556 130.062 320.918C131.138 320.28 132.387 319.961 133.809 319.961C135.24 319.961 136.493 320.28 137.568 320.918C138.644 321.556 139.469 322.454 140.043 323.611C140.626 324.769 140.918 326.113 140.918 327.645C140.918 329.167 140.626 330.507 140.043 331.664C139.46 332.822 138.63 333.719 137.555 334.357C136.488 334.986 135.24 335.301 133.809 335.301ZM133.836 332.512C134.602 332.512 135.249 332.298 135.777 331.869C136.315 331.441 136.716 330.857 136.98 330.119C137.254 329.381 137.391 328.547 137.391 327.617C137.391 326.697 137.254 325.867 136.98 325.129C136.716 324.382 136.315 323.794 135.777 323.365C135.249 322.937 134.602 322.723 133.836 322.723C133.052 322.723 132.387 322.937 131.84 323.365C131.302 323.794 130.896 324.377 130.623 325.115C130.359 325.854 130.227 326.688 130.227 327.617C130.227 328.547 130.359 329.381 130.623 330.119C130.896 330.857 131.302 331.441 131.84 331.869C132.387 332.298 133.052 332.512 133.836 332.512ZM155.733 321.875C155.596 321.1 155.309 320.43 154.871 319.865C154.434 319.3 153.878 318.872 153.204 318.58C152.538 318.279 151.804 318.129 151.002 318.129C149.909 318.129 148.947 318.402 148.118 318.949C147.288 319.487 146.641 320.28 146.176 321.328C145.711 322.376 145.479 323.634 145.479 325.102C145.479 326.578 145.711 327.84 146.176 328.889C146.641 329.937 147.288 330.73 148.118 331.268C148.956 331.805 149.918 332.074 151.002 332.074C151.786 332.074 152.506 331.933 153.162 331.65C153.828 331.359 154.384 330.939 154.83 330.393C155.277 329.846 155.578 329.194 155.733 328.438H159.315C159.133 329.714 158.672 330.871 157.934 331.91C157.205 332.949 156.239 333.77 155.036 334.371C153.832 334.973 152.47 335.273 150.948 335.273C149.207 335.273 147.648 334.868 146.272 334.057C144.905 333.236 143.834 332.061 143.059 330.529C142.284 328.989 141.897 327.18 141.897 325.102C141.897 323.014 142.284 321.205 143.059 319.674C143.843 318.143 144.918 316.971 146.286 316.16C147.662 315.34 149.216 314.93 150.948 314.93C152.406 314.93 153.732 315.208 154.926 315.764C156.12 316.311 157.1 317.108 157.866 318.156C158.631 319.195 159.114 320.435 159.315 321.875H155.733ZM178.39 324.527H166.468V314.246H178.39V324.527ZM169.476 322.148H175.382V316.652H169.476V322.148ZM185.745 326.797H182.738V312.715H185.745V326.797ZM186.265 330.543H179.21C179.31 331.199 179.698 331.842 180.372 332.471C181.056 333.1 181.986 333.646 183.161 334.111C184.337 334.576 185.682 334.882 187.195 335.027L186.155 337.352C184.196 337.151 182.473 336.691 180.988 335.971C179.511 335.251 178.385 334.362 177.611 333.305C176.836 334.362 175.701 335.246 174.206 335.957C172.711 336.668 170.971 337.133 168.984 337.352L167.945 335.027C169.467 334.9 170.82 334.608 172.005 334.152C173.19 333.697 174.124 333.15 174.808 332.512C175.501 331.865 175.892 331.208 175.984 330.543H168.956V328.246H176.066V326.086H179.128V328.246H186.265V330.543ZM45.6523 351.648C45.6432 353.125 45.8757 354.574 46.3496 355.996C46.8327 357.409 47.5299 358.676 48.4414 359.797C49.3529 360.918 50.4284 361.775 51.668 362.367L49.8086 364.801C48.4961 364.135 47.3568 363.188 46.3906 361.957C45.4336 360.727 44.6862 359.305 44.1484 357.691C43.5924 359.414 42.8086 360.936 41.7969 362.258C40.7943 363.57 39.6003 364.573 38.2148 365.266L36.3555 362.832C37.6406 362.221 38.7526 361.333 39.6914 360.166C40.6393 358.99 41.3594 357.664 41.8516 356.188C42.3529 354.702 42.6081 353.189 42.6172 351.648V347.711H45.6523V351.648ZM56.1797 355.395H59.9805V357.992H56.1797V370.434H53.1445V345.715H56.1797V355.395ZM80.182 370.461H77.1195V345.715H80.182V370.461ZM66.8656 347.52C68.1052 347.52 69.2081 347.88 70.1742 348.6C71.1495 349.311 71.9151 350.327 72.4711 351.648C73.0271 352.961 73.3096 354.492 73.3188 356.242C73.3096 358.001 73.0271 359.542 72.4711 360.863C71.9242 362.185 71.1632 363.206 70.1879 363.926C69.2126 364.637 68.1052 364.992 66.8656 364.992C65.6169 364.992 64.5049 364.637 63.5297 363.926C62.5544 363.206 61.7888 362.185 61.2328 360.863C60.6859 359.542 60.4125 358.001 60.4125 356.242C60.4125 354.492 60.6859 352.961 61.2328 351.648C61.7888 350.327 62.5544 349.311 63.5297 348.6C64.5049 347.88 65.6169 347.52 66.8656 347.52ZM66.8656 350.254C66.1638 350.254 65.544 350.491 65.0063 350.965C64.4776 351.439 64.0674 352.127 63.7758 353.029C63.4841 353.932 63.3383 355.003 63.3383 356.242C63.3383 357.491 63.4841 358.566 63.7758 359.469C64.0674 360.371 64.4776 361.064 65.0063 361.547C65.544 362.021 66.1638 362.258 66.8656 362.258C67.5583 362.258 68.169 362.021 68.6977 361.547C69.2263 361.064 69.6365 360.371 69.9281 359.469C70.2198 358.566 70.3656 357.491 70.3656 356.242C70.3656 355.003 70.2198 353.936 69.9281 353.043C69.6365 352.141 69.2263 351.452 68.6977 350.979C68.169 350.495 67.5583 350.254 66.8656 350.254ZM103.145 370.461H100.138V357.062H95.1063V364.473H83.3484V347.629H86.4109V353.781H92.1258V347.629H95.1063V354.574H100.138V345.715H103.145V370.461ZM92.1258 362.039V356.16H86.4109V362.039H92.1258ZM133.048 367.453H110.463V364.965H120.197V360.152H112.951V347.355H115.986V351.402H127.443V347.355H130.478V360.152H123.205V364.965H133.048V367.453ZM127.443 357.691V353.836H115.986V357.691H127.443ZM152.758 352.961H156.203V355.477H152.758V363.789H149.723V345.715H152.758V352.961ZM153.742 369.941H136.926V361.902H139.961V367.48H153.742V369.941ZM140.207 347.355C141.447 347.355 142.572 347.624 143.584 348.162C144.596 348.691 145.393 349.429 145.977 350.377C146.569 351.325 146.87 352.396 146.879 353.59C146.87 354.766 146.569 355.827 145.977 356.775C145.393 357.714 144.591 358.452 143.57 358.99C142.559 359.528 141.438 359.797 140.207 359.797C138.967 359.797 137.837 359.528 136.816 358.99C135.796 358.452 134.989 357.714 134.396 356.775C133.813 355.827 133.526 354.766 133.535 353.59C133.526 352.405 133.813 351.339 134.396 350.391C134.989 349.434 135.796 348.691 136.816 348.162C137.837 347.624 138.967 347.355 140.207 347.355ZM140.207 350.008C139.514 350.008 138.885 350.158 138.32 350.459C137.755 350.751 137.309 351.17 136.98 351.717C136.661 352.255 136.507 352.879 136.516 353.59C136.507 354.283 136.661 354.898 136.98 355.436C137.309 355.973 137.755 356.388 138.32 356.68C138.885 356.971 139.514 357.117 140.207 357.117C140.9 357.117 141.524 356.971 142.08 356.68C142.645 356.388 143.087 355.973 143.406 355.436C143.734 354.898 143.898 354.283 143.898 353.59C143.898 352.879 143.734 352.255 143.406 351.717C143.087 351.17 142.645 350.751 142.08 350.459C141.524 350.158 140.9 350.008 140.207 350.008Z" fill="#282828"/>
<path d="M32 39H60" stroke="#282828" stroke-linecap="round"/>
</svg>
