<svg width="240" height="411" viewBox="0 0 240 411" fill="none" xmlns="http://www.w3.org/2000/svg">
<rect width="240" height="411" fill="#9C9C9C"/>
<mask id="path-2-outside-1_678_198" maskUnits="userSpaceOnUse" x="178" y="28" width="30" height="21" fill="black">
<rect fill="white" x="178" y="28" width="30" height="21"/>
<path d="M185.354 47.2735C184.05 47.2735 182.931 46.9309 181.997 46.2459C181.069 45.5608 180.359 44.5635 179.867 43.2541C179.376 41.9392 179.13 40.3619 179.13 38.5221C179.13 36.6934 179.376 35.1271 179.867 33.8232C180.365 32.5138 181.08 31.5166 182.014 30.8315C182.948 30.1409 184.061 29.7956 185.354 29.7956C186.646 29.7956 187.76 30.1409 188.693 30.8315C189.633 31.5166 190.348 32.5138 190.84 33.8232C191.337 35.1271 191.586 36.6934 191.586 38.5221C191.586 40.3619 191.34 41.9392 190.848 43.2541C190.356 44.5635 189.644 45.5608 188.71 46.2459C187.776 46.9309 186.658 47.2735 185.354 47.2735ZM181.699 38.5221C181.699 39.9199 181.843 41.1077 182.13 42.0856C182.417 43.058 182.834 43.7956 183.381 44.2983C183.934 44.8011 184.591 45.0525 185.354 45.0525C186.122 45.0525 186.779 44.8011 187.326 44.2983C187.873 43.7956 188.29 43.058 188.577 42.0856C188.87 41.1077 189.017 39.9199 189.017 38.5221C189.017 37.1298 188.87 35.9448 188.577 34.9669C188.285 33.989 187.865 33.2486 187.318 32.7459C186.771 32.2431 186.116 31.9917 185.354 31.9917C184.597 31.9917 183.945 32.2431 183.398 32.7459C182.851 33.2486 182.431 33.989 182.138 34.9669C181.845 35.9448 181.699 37.1298 181.699 38.5221ZM193.901 41.605L201.393 30.0276H204.592V41.5055H206.895V43.6851H204.592V47H202.13V43.6851H193.901V41.605ZM202.147 41.5055V33.0939H201.965L196.603 41.3729V41.5055H202.147Z"/>
</mask>
<path d="M185.354 47.2735C184.05 47.2735 182.931 46.9309 181.997 46.2459C181.069 45.5608 180.359 44.5635 179.867 43.2541C179.376 41.9392 179.13 40.3619 179.13 38.5221C179.13 36.6934 179.376 35.1271 179.867 33.8232C180.365 32.5138 181.08 31.5166 182.014 30.8315C182.948 30.1409 184.061 29.7956 185.354 29.7956C186.646 29.7956 187.76 30.1409 188.693 30.8315C189.633 31.5166 190.348 32.5138 190.84 33.8232C191.337 35.1271 191.586 36.6934 191.586 38.5221C191.586 40.3619 191.34 41.9392 190.848 43.2541C190.356 44.5635 189.644 45.5608 188.71 46.2459C187.776 46.9309 186.658 47.2735 185.354 47.2735ZM181.699 38.5221C181.699 39.9199 181.843 41.1077 182.13 42.0856C182.417 43.058 182.834 43.7956 183.381 44.2983C183.934 44.8011 184.591 45.0525 185.354 45.0525C186.122 45.0525 186.779 44.8011 187.326 44.2983C187.873 43.7956 188.29 43.058 188.577 42.0856C188.87 41.1077 189.017 39.9199 189.017 38.5221C189.017 37.1298 188.87 35.9448 188.577 34.9669C188.285 33.989 187.865 33.2486 187.318 32.7459C186.771 32.2431 186.116 31.9917 185.354 31.9917C184.597 31.9917 183.945 32.2431 183.398 32.7459C182.851 33.2486 182.431 33.989 182.138 34.9669C181.845 35.9448 181.699 37.1298 181.699 38.5221ZM193.901 41.605L201.393 30.0276H204.592V41.5055H206.895V43.6851H204.592V47H202.13V43.6851H193.901V41.605ZM202.147 41.5055V33.0939H201.965L196.603 41.3729V41.5055H202.147Z" fill="#282828"/>
<path d="M181.997 46.2459L181.403 47.0504L181.406 47.0521L181.997 46.2459ZM179.867 43.2541L178.931 43.6044L178.931 43.6057L179.867 43.2541ZM179.867 33.8232L178.933 33.4682L178.932 33.4703L179.867 33.8232ZM182.014 30.8315L182.605 31.6378L182.609 31.6355L182.014 30.8315ZM188.693 30.8315L188.099 31.6355L188.104 31.6394L188.693 30.8315ZM190.84 33.8232L189.904 34.1748L189.906 34.1795L190.84 33.8232ZM190.848 43.2541L191.784 43.6057L191.785 43.6044L190.848 43.2541ZM188.71 46.2459L188.118 45.4396L188.71 46.2459ZM182.13 42.0856L181.17 42.3675L181.171 42.369L182.13 42.0856ZM183.381 44.2983L182.705 45.0346L182.708 45.0379L183.381 44.2983ZM187.326 44.2983L188.003 45.0346L187.326 44.2983ZM188.577 42.0856L187.619 41.7988L187.618 41.8023L188.577 42.0856ZM188.577 34.9669L189.535 34.68L188.577 34.9669ZM183.398 32.7459L182.721 32.0096L183.398 32.7459ZM182.138 34.9669L181.18 34.68L182.138 34.9669ZM185.354 47.2735V46.2735C184.235 46.2735 183.33 45.9832 182.589 45.4396L181.997 46.2459L181.406 47.0521C182.532 47.8787 183.865 48.2735 185.354 48.2735V47.2735ZM181.997 46.2459L182.591 45.4413C181.849 44.8933 181.242 44.0698 180.804 42.9026L179.867 43.2541L178.931 43.6057C179.476 45.0572 180.29 46.2282 181.403 47.0504L181.997 46.2459ZM179.867 43.2541L180.804 42.9039C180.365 41.7298 180.13 40.2774 180.13 38.5221H179.13H178.13C178.13 40.4463 178.386 42.1487 178.931 43.6044L179.867 43.2541ZM179.13 38.5221H180.13C180.13 36.7783 180.365 35.338 180.803 34.1761L179.867 33.8232L178.932 33.4703C178.387 34.9161 178.13 36.6084 178.13 38.5221H179.13ZM179.867 33.8232L180.802 34.1782C181.246 33.0111 181.857 32.1867 182.605 31.6377L182.014 30.8315L181.422 30.0252C180.303 30.8464 179.484 32.0166 178.933 33.4682L179.867 33.8232ZM182.014 30.8315L182.609 31.6355C183.351 31.0865 184.25 30.7956 185.354 30.7956V29.7956V28.7956C183.872 28.7956 182.544 29.1952 181.419 30.0275L182.014 30.8315ZM185.354 29.7956V30.7956C186.458 30.7956 187.357 31.0865 188.099 31.6355L188.693 30.8315L189.288 30.0275C188.163 29.1952 186.835 28.7956 185.354 28.7956V29.7956ZM188.693 30.8315L188.104 31.6394C188.856 32.1879 189.466 33.0105 189.904 34.1748L190.84 33.8232L191.776 33.4716C191.23 32.0171 190.409 30.8452 189.283 30.0236L188.693 30.8315ZM190.84 33.8232L189.906 34.1795C190.348 35.3404 190.586 36.7793 190.586 38.5221H191.586H192.586C192.586 36.6074 192.326 34.9138 191.774 33.4669L190.84 33.8232ZM191.586 38.5221H190.586C190.586 40.2774 190.351 41.7298 189.912 42.9039L190.848 43.2541L191.785 43.6044C192.329 42.1487 192.586 40.4463 192.586 38.5221H191.586ZM190.848 43.2541L189.912 42.9026C189.474 44.0683 188.866 44.8914 188.118 45.4396L188.71 46.2459L189.302 47.0521C190.422 46.2302 191.239 45.0587 191.784 43.6057L190.848 43.2541ZM188.71 46.2459L188.118 45.4396C187.378 45.9832 186.473 46.2735 185.354 46.2735V47.2735V48.2735C186.842 48.2735 188.175 47.8787 189.302 47.0521L188.71 46.2459ZM181.699 38.5221H180.699C180.699 39.9826 180.848 41.2712 181.17 42.3675L182.13 42.0856L183.089 41.8038C182.837 40.9442 182.699 39.8572 182.699 38.5221H181.699ZM182.13 42.0856L181.171 42.369C181.492 43.4541 181.984 44.3723 182.705 45.0346L183.381 44.2983L184.058 43.5621C183.685 43.2188 183.343 42.6619 183.089 41.8023L182.13 42.0856ZM183.381 44.2983L182.708 45.0379C183.449 45.712 184.348 46.0525 185.354 46.0525V45.0525V44.0525C184.835 44.0525 184.419 43.8902 184.054 43.5587L183.381 44.2983ZM185.354 45.0525V46.0525C186.363 46.0525 187.265 45.7132 188.003 45.0346L187.326 44.2983L186.649 43.5621C186.294 43.889 185.88 44.0525 185.354 44.0525V45.0525ZM187.326 44.2983L188.003 45.0346C188.723 44.3723 189.216 43.4541 189.536 42.369L188.577 42.0856L187.618 41.8023C187.364 42.6619 187.023 43.2188 186.649 43.5621L187.326 44.2983ZM188.577 42.0856L189.535 42.3725C189.864 41.2743 190.017 39.9839 190.017 38.5221H189.017H188.017C188.017 39.8559 187.876 40.9411 187.619 41.7988L188.577 42.0856ZM189.017 38.5221H190.017C190.017 37.0654 189.864 35.7778 189.535 34.68L188.577 34.9669L187.619 35.2537C187.876 36.1117 188.017 37.1943 188.017 38.5221H189.017ZM188.577 34.9669L189.535 34.68C189.209 33.5916 188.715 32.6715 187.995 32.0096L187.318 32.7459L186.641 33.4821C187.015 33.8258 187.36 34.3863 187.619 35.2537L188.577 34.9669ZM187.318 32.7459L187.995 32.0096C187.258 31.3324 186.359 30.9917 185.354 30.9917V31.9917V32.9917C185.873 32.9917 186.284 33.1538 186.641 33.4821L187.318 32.7459ZM185.354 31.9917V30.9917C184.351 30.9917 183.456 31.3337 182.721 32.0096L183.398 32.7459L184.075 33.4821C184.433 33.1525 184.842 32.9917 185.354 32.9917V31.9917ZM183.398 32.7459L182.721 32.0096C182.001 32.6715 181.506 33.5916 181.18 34.68L182.138 34.9669L183.096 35.2537C183.356 34.3863 183.701 33.8258 184.075 33.4821L183.398 32.7459ZM182.138 34.9669L181.18 34.68C180.852 35.7778 180.699 37.0654 180.699 38.5221H181.699H182.699C182.699 37.1943 182.839 36.1117 183.096 35.2537L182.138 34.9669ZM193.901 41.605L193.061 41.0617L192.901 41.3096V41.605H193.901ZM201.393 30.0276V29.0276H200.849L200.553 29.4843L201.393 30.0276ZM204.592 30.0276H205.592V29.0276H204.592V30.0276ZM204.592 41.5055H203.592V42.5055H204.592V41.5055ZM206.895 41.5055H207.895V40.5055H206.895V41.5055ZM206.895 43.6851V44.6851H207.895V43.6851H206.895ZM204.592 43.6851V42.6851H203.592V43.6851H204.592ZM204.592 47V48H205.592V47H204.592ZM202.13 47H201.13V48H202.13V47ZM202.13 43.6851H203.13V42.6851H202.13V43.6851ZM193.901 43.6851H192.901V44.6851H193.901V43.6851ZM202.147 41.5055V42.5055H203.147V41.5055H202.147ZM202.147 33.0939H203.147V32.0939H202.147V33.0939ZM201.965 33.0939V32.0939H201.421L201.125 32.5503L201.965 33.0939ZM196.603 41.3729L195.763 40.8293L195.603 41.0774V41.3729H196.603ZM196.603 41.5055H195.603V42.5055H196.603V41.5055ZM193.901 41.605L194.741 42.1482L202.232 30.5709L201.393 30.0276L200.553 29.4843L193.061 41.0617L193.901 41.605ZM201.393 30.0276V31.0276H204.592V30.0276V29.0276H201.393V30.0276ZM204.592 30.0276H203.592V41.5055H204.592H205.592V30.0276H204.592ZM204.592 41.5055V42.5055H206.895V41.5055V40.5055H204.592V41.5055ZM206.895 41.5055H205.895V43.6851H206.895H207.895V41.5055H206.895ZM206.895 43.6851V42.6851H204.592V43.6851V44.6851H206.895V43.6851ZM204.592 43.6851H203.592V47H204.592H205.592V43.6851H204.592ZM204.592 47V46H202.13V47V48H204.592V47ZM202.13 47H203.13V43.6851H202.13H201.13V47H202.13ZM202.13 43.6851V42.6851H193.901V43.6851V44.6851H202.13V43.6851ZM193.901 43.6851H194.901V41.605H193.901H192.901V43.6851H193.901ZM202.147 41.5055H203.147V33.0939H202.147H201.147V41.5055H202.147ZM202.147 33.0939V32.0939H201.965V33.0939V34.0939H202.147V33.0939ZM201.965 33.0939L201.125 32.5503L195.763 40.8293L196.603 41.3729L197.442 41.9165L202.804 33.6375L201.965 33.0939ZM196.603 41.3729H195.603V41.5055H196.603H197.603V41.3729H196.603ZM196.603 41.5055V42.5055H202.147V41.5055V40.5055H196.603V41.5055Z" fill="#9C9C9C" mask="url(#path-2-outside-1_678_198)"/>
<path d="M42.7539 348.094H53.418V346.152H56.4258V354.41H39.7461V346.152H42.7539V348.094ZM53.418 352.113V350.309H42.7539V352.113H53.418ZM59.3516 358.375H36.8203V355.996H59.3516V358.375ZM56.5352 366.086H42.4805V367.891H57.2188V370.215H39.5V363.953H53.5547V362.367H39.4727V360.125H56.5352V366.086ZM82.1781 361.547H59.5922V359.086H69.3813V357.035H62.4633V350.473H76.3539V348.641H62.3813V346.262H79.3891V352.688H65.4711V354.656H79.8813V357.035H72.3891V359.086H82.1781V361.547ZM79.5258 370.27H76.4633V365.512H62.1078V363.105H79.5258V370.27ZM89.9656 353.262C89.9656 354.574 90.1479 355.846 90.5125 357.076C90.8862 358.298 91.4467 359.41 92.1941 360.412C92.9507 361.406 93.8849 362.203 94.9969 362.805L93.3016 365.047C92.1896 364.454 91.2371 363.643 90.4441 362.613C89.6512 361.583 89.0268 360.398 88.5711 359.059C88.1154 360.517 87.4865 361.811 86.6844 362.941C85.8914 364.062 84.9344 364.956 83.8133 365.621L82.0359 363.324C83.157 362.677 84.0958 361.82 84.8523 360.754C85.618 359.678 86.1831 358.498 86.5477 357.213C86.9122 355.928 87.0945 354.611 87.0945 353.262V352.496H82.8836V350.035H87.0945V346.59H89.9656V350.035H94.0945V352.496H89.9656V353.262ZM103.692 370.434H100.794V345.715H103.692V370.434ZM98.6609 369.23H95.7898V357.719H92.5633V355.203H95.7898V346.18H98.6609V369.23ZM125.808 363.598H122.745V345.742H125.808V363.598ZM126.491 369.941H109.456V361.793H112.519V367.48H126.491V369.941ZM112.327 347.355C113.567 347.355 114.693 347.624 115.704 348.162C116.716 348.691 117.514 349.424 118.097 350.363C118.68 351.302 118.972 352.359 118.972 353.535C118.972 354.729 118.68 355.8 118.097 356.748C117.514 357.687 116.716 358.421 115.704 358.949C114.693 359.478 113.567 359.742 112.327 359.742C111.079 359.742 109.944 359.478 108.923 358.949C107.911 358.421 107.114 357.687 106.53 356.748C105.947 355.8 105.655 354.729 105.655 353.535C105.655 352.359 105.947 351.302 106.53 350.363C107.114 349.424 107.911 348.691 108.923 348.162C109.944 347.624 111.079 347.355 112.327 347.355ZM112.327 350.008C111.626 350.008 110.992 350.154 110.427 350.445C109.862 350.737 109.42 351.152 109.101 351.689C108.782 352.227 108.627 352.842 108.636 353.535C108.627 354.246 108.782 354.87 109.101 355.408C109.42 355.946 109.862 356.361 110.427 356.652C110.992 356.944 111.626 357.09 112.327 357.09C113.011 357.09 113.631 356.944 114.187 356.652C114.743 356.361 115.18 355.946 115.499 355.408C115.827 354.87 115.991 354.246 115.991 353.535C115.991 352.842 115.827 352.227 115.499 351.689C115.18 351.152 114.743 350.737 114.187 350.445C113.631 350.154 113.011 350.008 112.327 350.008Z" fill="#282828"/>
<path d="M32 39H60" stroke="#282828" stroke-linecap="round"/>
</svg>
