<svg width="17" height="17" viewBox="0 0 17 17" fill="none" xmlns="http://www.w3.org/2000/svg">
<path d="M16.5287 13.3261L16.4956 0.551748L3.72127 0.518602C3.58818 0.500582 3.45277 0.511368 3.32421 0.550229C3.19566 0.589091 3.07695 0.655121 2.97613 0.743848C2.87531 0.832576 2.79473 0.941929 2.73984 1.06451C2.68496 1.18708 2.65705 1.32002 2.65801 1.45432C2.65897 1.58862 2.68877 1.72115 2.7454 1.84293C2.80203 1.96471 2.88416 2.0729 2.98624 2.16018C3.08832 2.24746 3.20796 2.31178 3.33706 2.3488C3.46616 2.38582 3.60171 2.39468 3.73453 2.37476L13.307 2.41453L0.625466 15.0961C0.449651 15.2719 0.350878 15.5103 0.350878 15.759C0.350878 16.0076 0.449651 16.2461 0.625466 16.4219C0.801281 16.5977 1.03974 16.6965 1.28838 16.6965C1.53702 16.6965 1.77548 16.5977 1.95129 16.4219L14.6328 3.74036L14.6726 13.3128C14.6735 13.5616 14.7731 13.7998 14.9497 13.9751C15.1262 14.1504 15.3651 14.2484 15.6139 14.2475C15.8627 14.2466 16.1009 14.147 16.2762 13.9704C16.4515 13.7939 16.5495 13.555 16.5486 13.3062L16.5287 13.3261Z" fill="black"/>
</svg>
