<svg width="20" height="16" viewBox="0 0 20 16" fill="none" xmlns="http://www.w3.org/2000/svg">
<path d="M17.3335 4.33317L10.0002 8.9165L2.66683 4.33317V2.49984L10.0002 7.08317L17.3335 2.49984M17.3335 0.666504H2.66683C1.64933 0.666504 0.833496 1.48234 0.833496 2.49984V13.4998C0.833496 13.9861 1.02665 14.4524 1.37047 14.7962C1.71428 15.14 2.1806 15.3332 2.66683 15.3332H17.3335C17.8197 15.3332 18.286 15.14 18.6299 14.7962C18.9737 14.4524 19.1668 13.9861 19.1668 13.4998V2.49984C19.1668 2.01361 18.9737 1.54729 18.6299 1.20347C18.286 0.859658 17.8197 0.666504 17.3335 0.666504Z" fill="#282828"/>
</svg>
