<svg width="132" height="48" viewBox="0 0 132 48" fill="none" xmlns="http://www.w3.org/2000/svg">
<rect width="132" height="48" rx="24" fill="#0B2E5A"/>
<g clip-path="url(#clip0_1150_2210)">
<path d="M32.5 22.5C32.5 24.99 30.49 27 28 27C25.51 27 23.5 24.99 23.5 22.5C23.5 20.01 25.51 18 28 18C30.49 18 32.5 20.01 32.5 22.5Z" fill="#EFF2F5"/>
<path fill-rule="evenodd" clip-rule="evenodd" d="M40 24C40 30.63 34.63 36 28 36C21.37 36 16 30.63 16 24C16 17.37 21.37 12 28 12C34.63 12 40 17.37 40 24ZM22 32.625C22.24 32.226 24.565 28.5 27.985 28.5C31.39 28.5 33.73 32.235 33.97 32.625C35.3648 31.6605 36.5044 30.3716 37.2909 28.8692C38.0774 27.3668 38.4872 25.6958 38.485 24C38.485 18.195 33.79 13.5 27.985 13.5C22.18 13.5 17.485 18.195 17.485 24C17.485 27.57 19.27 30.735 22 32.625Z" fill="#EFF2F5"/>
</g>
<path d="M49.3008 17.7734H51.2344V28.8301H56.9824V30.5H49.3008V17.7734ZM69.5156 24.1367C69.5156 25.4609 69.2695 26.6182 68.7773 27.6084C68.2852 28.5928 67.6025 29.3516 66.7295 29.8848C65.8623 30.4121 64.8809 30.6758 63.7852 30.6758C62.6777 30.6758 61.6875 30.4121 60.8145 29.8848C59.9473 29.3516 59.2676 28.5928 58.7754 27.6084C58.2832 26.6182 58.0371 25.4609 58.0371 24.1367C58.0371 22.8066 58.2832 21.6494 58.7754 20.665C59.2676 19.6748 59.9473 18.916 60.8145 18.3887C61.6875 17.8613 62.6777 17.5977 63.7852 17.5977C64.8809 17.5977 65.8623 17.8613 66.7295 18.3887C67.6025 18.916 68.2852 19.6748 68.7773 20.665C69.2695 21.6494 69.5156 22.8066 69.5156 24.1367ZM67.5996 24.1367C67.5996 23.1289 67.4355 22.2676 67.1074 21.5527C66.7793 20.8379 66.3252 20.2959 65.7451 19.9268C65.1709 19.5576 64.5176 19.373 63.7852 19.373C63.0469 19.373 62.3877 19.5576 61.8076 19.9268C61.2275 20.2959 60.7734 20.8379 60.4453 21.5527C60.1172 22.2676 59.9531 23.1289 59.9531 24.1367C59.9531 25.1445 60.1172 26.0059 60.4453 26.7207C60.7734 27.4355 61.2275 27.9775 61.8076 28.3467C62.3877 28.7158 63.0469 28.9004 63.7852 28.9004C64.5176 28.9004 65.1709 28.7158 65.7451 28.3467C66.3252 27.9775 66.7793 27.4355 67.1074 26.7207C67.4355 26 67.5996 25.1387 67.5996 24.1367ZM80.291 21.7988C80.0508 21.0312 79.6465 20.4365 79.0781 20.0146C78.5156 19.5869 77.8184 19.373 76.9863 19.373C76.2656 19.373 75.6152 19.5605 75.0352 19.9355C74.4609 20.3047 74.0098 20.8496 73.6816 21.5703C73.3535 22.2852 73.1895 23.1406 73.1895 24.1367C73.1895 25.1387 73.3535 25.9971 73.6816 26.7119C74.0156 27.4268 74.4756 27.9717 75.0615 28.3467C75.6475 28.7158 76.3184 28.9004 77.0742 28.9004C77.748 28.9004 78.3398 28.7656 78.8496 28.4961C79.3594 28.2266 79.7549 27.8428 80.0361 27.3447C80.3232 26.8408 80.4727 26.252 80.4844 25.5781H77.3555V23.9785H82.3652V25.4199C82.3652 26.4746 82.1396 27.4004 81.6885 28.1973C81.2373 28.9883 80.6074 29.6006 79.7988 30.0342C78.9961 30.4619 78.082 30.6758 77.0566 30.6758C75.9141 30.6758 74.9062 30.4121 74.0332 29.8848C73.1602 29.3516 72.4805 28.5928 71.9941 27.6084C71.5137 26.6182 71.2734 25.4609 71.2734 24.1367C71.2734 22.8125 71.5166 21.6582 72.0029 20.6738C72.4893 19.6836 73.1631 18.9248 74.0244 18.3975C74.8916 17.8643 75.873 17.5977 76.9688 17.5977C77.877 17.5977 78.7061 17.7764 79.4561 18.1338C80.2119 18.4854 80.833 18.9805 81.3193 19.6191C81.8115 20.252 82.1309 20.9785 82.2773 21.7988H80.291ZM86.5312 30.5H84.5977V17.7734H86.5312V30.5ZM99.3809 30.5H97.6055L91.1543 21.2012H91.0488V30.5H89.1152V17.7734H90.9082L97.3594 27.0898H97.4824V17.7734H99.3809V30.5Z" fill="#EFF2F5"/>
<defs>
<clipPath id="clip0_1150_2210">
<rect width="24" height="24" fill="white" transform="translate(16 12)"/>
</clipPath>
</defs>
</svg>
