<svg width="240" height="411" viewBox="0 0 240 411" fill="none" xmlns="http://www.w3.org/2000/svg">
<rect width="240" height="411" fill="#BEBEBE"/>
<mask id="path-2-outside-1_678_195" maskUnits="userSpaceOnUse" x="179" y="28" width="29" height="21" fill="black">
<rect fill="white" x="179" y="28" width="29" height="21"/>
<path d="M186.315 47.2735C185.011 47.2735 183.892 46.9309 182.958 46.2459C182.03 45.5608 181.32 44.5635 180.828 43.2541C180.337 41.9392 180.091 40.3619 180.091 38.5221C180.091 36.6934 180.337 35.1271 180.828 33.8232C181.326 32.5138 182.041 31.5166 182.975 30.8315C183.909 30.1409 185.022 29.7956 186.315 29.7956C187.607 29.7956 188.721 30.1409 189.654 30.8315C190.594 31.5166 191.309 32.5138 191.801 33.8232C192.298 35.1271 192.547 36.6934 192.547 38.5221C192.547 40.3619 192.301 41.9392 191.809 43.2541C191.317 44.5635 190.605 45.5608 189.671 46.2459C188.737 46.9309 187.618 47.2735 186.315 47.2735ZM182.66 38.5221C182.66 39.9199 182.804 41.1077 183.091 42.0856C183.378 43.058 183.795 43.7956 184.342 44.2983C184.895 44.8011 185.552 45.0525 186.315 45.0525C187.083 45.0525 187.74 44.8011 188.287 44.2983C188.834 43.7956 189.251 43.058 189.538 42.0856C189.831 41.1077 189.978 39.9199 189.978 38.5221C189.978 37.1298 189.831 35.9448 189.538 34.9669C189.246 33.989 188.826 33.2486 188.279 32.7459C187.732 32.2431 187.077 31.9917 186.315 31.9917C185.558 31.9917 184.906 32.2431 184.359 32.7459C183.812 33.2486 183.392 33.989 183.099 34.9669C182.806 35.9448 182.66 37.1298 182.66 38.5221ZM195.218 45.1271L201.102 39.1851C201.815 38.4448 202.359 37.8481 202.735 37.395C203.111 36.942 203.398 36.5 203.597 36.0691C203.801 35.6326 203.903 35.174 203.903 34.6934C203.903 34.1464 203.765 33.6657 203.489 33.2514C203.213 32.837 202.834 32.5193 202.354 32.2983C201.878 32.0718 201.345 31.9586 200.754 31.9586C200.135 31.9586 199.591 32.0829 199.122 32.3315C198.658 32.5746 198.298 32.9227 198.044 33.3757C197.796 33.8287 197.671 34.3564 197.671 34.9586H195.218C195.218 33.942 195.456 33.0442 195.931 32.2652C196.412 31.4807 197.075 30.8729 197.92 30.442C198.771 30.011 199.732 29.7956 200.804 29.7956C201.876 29.7956 202.832 30.0055 203.671 30.4254C204.511 30.8453 205.166 31.4227 205.635 32.1575C206.111 32.8867 206.351 33.7072 206.356 34.6188C206.351 35.2707 206.227 35.895 205.983 36.4917C205.74 37.0884 205.326 37.7541 204.74 38.489C204.16 39.2182 203.334 40.1077 202.262 41.1575L198.815 44.663V44.7873H206.63V47H195.227L195.218 45.1271Z"/>
</mask>
<path d="M186.315 47.2735C185.011 47.2735 183.892 46.9309 182.958 46.2459C182.03 45.5608 181.32 44.5635 180.828 43.2541C180.337 41.9392 180.091 40.3619 180.091 38.5221C180.091 36.6934 180.337 35.1271 180.828 33.8232C181.326 32.5138 182.041 31.5166 182.975 30.8315C183.909 30.1409 185.022 29.7956 186.315 29.7956C187.607 29.7956 188.721 30.1409 189.654 30.8315C190.594 31.5166 191.309 32.5138 191.801 33.8232C192.298 35.1271 192.547 36.6934 192.547 38.5221C192.547 40.3619 192.301 41.9392 191.809 43.2541C191.317 44.5635 190.605 45.5608 189.671 46.2459C188.737 46.9309 187.618 47.2735 186.315 47.2735ZM182.66 38.5221C182.66 39.9199 182.804 41.1077 183.091 42.0856C183.378 43.058 183.795 43.7956 184.342 44.2983C184.895 44.8011 185.552 45.0525 186.315 45.0525C187.083 45.0525 187.74 44.8011 188.287 44.2983C188.834 43.7956 189.251 43.058 189.538 42.0856C189.831 41.1077 189.978 39.9199 189.978 38.5221C189.978 37.1298 189.831 35.9448 189.538 34.9669C189.246 33.989 188.826 33.2486 188.279 32.7459C187.732 32.2431 187.077 31.9917 186.315 31.9917C185.558 31.9917 184.906 32.2431 184.359 32.7459C183.812 33.2486 183.392 33.989 183.099 34.9669C182.806 35.9448 182.66 37.1298 182.66 38.5221ZM195.218 45.1271L201.102 39.1851C201.815 38.4448 202.359 37.8481 202.735 37.395C203.111 36.942 203.398 36.5 203.597 36.0691C203.801 35.6326 203.903 35.174 203.903 34.6934C203.903 34.1464 203.765 33.6657 203.489 33.2514C203.213 32.837 202.834 32.5193 202.354 32.2983C201.878 32.0718 201.345 31.9586 200.754 31.9586C200.135 31.9586 199.591 32.0829 199.122 32.3315C198.658 32.5746 198.298 32.9227 198.044 33.3757C197.796 33.8287 197.671 34.3564 197.671 34.9586H195.218C195.218 33.942 195.456 33.0442 195.931 32.2652C196.412 31.4807 197.075 30.8729 197.92 30.442C198.771 30.011 199.732 29.7956 200.804 29.7956C201.876 29.7956 202.832 30.0055 203.671 30.4254C204.511 30.8453 205.166 31.4227 205.635 32.1575C206.111 32.8867 206.351 33.7072 206.356 34.6188C206.351 35.2707 206.227 35.895 205.983 36.4917C205.74 37.0884 205.326 37.7541 204.74 38.489C204.16 39.2182 203.334 40.1077 202.262 41.1575L198.815 44.663V44.7873H206.63V47H195.227L195.218 45.1271Z" fill="#282828"/>
<path d="M182.958 46.2459L182.364 47.0504L182.367 47.0521L182.958 46.2459ZM180.828 43.2541L179.892 43.6044L179.892 43.6057L180.828 43.2541ZM180.828 33.8232L179.894 33.4682L179.893 33.4703L180.828 33.8232ZM182.975 30.8315L183.566 31.6378L183.569 31.6355L182.975 30.8315ZM189.654 30.8315L189.06 31.6355L189.065 31.6394L189.654 30.8315ZM191.801 33.8232L190.865 34.1748L190.866 34.1795L191.801 33.8232ZM191.809 43.2541L192.745 43.6057L192.746 43.6044L191.809 43.2541ZM189.671 46.2459L189.079 45.4396L189.671 46.2459ZM183.091 42.0856L182.131 42.3675L182.132 42.369L183.091 42.0856ZM184.342 44.2983L183.665 45.0346L183.669 45.0379L184.342 44.2983ZM188.287 44.2983L188.964 45.0346L188.287 44.2983ZM189.538 42.0856L188.58 41.7988L188.579 41.8023L189.538 42.0856ZM189.538 34.9669L190.496 34.68L189.538 34.9669ZM184.359 32.7459L183.682 32.0096L184.359 32.7459ZM183.099 34.9669L182.141 34.68L183.099 34.9669ZM186.315 47.2735V46.2735C185.196 46.2735 184.291 45.9832 183.55 45.4396L182.958 46.2459L182.367 47.0521C183.493 47.8787 184.826 48.2735 186.315 48.2735V47.2735ZM182.958 46.2459L183.552 45.4413C182.81 44.8933 182.203 44.0698 181.765 42.9026L180.828 43.2541L179.892 43.6057C180.437 45.0572 181.25 46.2282 182.364 47.0504L182.958 46.2459ZM180.828 43.2541L181.765 42.9039C181.326 41.7298 181.091 40.2774 181.091 38.5221H180.091H179.091C179.091 40.4463 179.347 42.1487 179.892 43.6044L180.828 43.2541ZM180.091 38.5221H181.091C181.091 36.7783 181.326 35.338 181.764 34.1761L180.828 33.8232L179.893 33.4703C179.348 34.9161 179.091 36.6084 179.091 38.5221H180.091ZM180.828 33.8232L181.763 34.1782C182.207 33.0111 182.818 32.1867 183.566 31.6377L182.975 30.8315L182.383 30.0252C181.264 30.8464 180.445 32.0166 179.894 33.4682L180.828 33.8232ZM182.975 30.8315L183.569 31.6355C184.312 31.0865 185.21 30.7956 186.315 30.7956V29.7956V28.7956C184.833 28.7956 183.505 29.1952 182.38 30.0275L182.975 30.8315ZM186.315 29.7956V30.7956C187.419 30.7956 188.318 31.0865 189.06 31.6355L189.654 30.8315L190.249 30.0275C189.124 29.1952 187.796 28.7956 186.315 28.7956V29.7956ZM189.654 30.8315L189.065 31.6394C189.817 32.1879 190.427 33.0105 190.865 34.1748L191.801 33.8232L192.737 33.4716C192.191 32.0171 191.37 30.8452 190.244 30.0236L189.654 30.8315ZM191.801 33.8232L190.866 34.1795C191.309 35.3404 191.547 36.7793 191.547 38.5221H192.547H193.547C193.547 36.6074 193.287 34.9138 192.735 33.4669L191.801 33.8232ZM192.547 38.5221H191.547C191.547 40.2774 191.312 41.7298 190.872 42.9039L191.809 43.2541L192.746 43.6044C193.29 42.1487 193.547 40.4463 193.547 38.5221H192.547ZM191.809 43.2541L190.873 42.9026C190.435 44.0683 189.827 44.8914 189.079 45.4396L189.671 46.2459L190.263 47.0521C191.383 46.2302 192.2 45.0587 192.745 43.6057L191.809 43.2541ZM189.671 46.2459L189.079 45.4396C188.339 45.9832 187.434 46.2735 186.315 46.2735V47.2735V48.2735C187.803 48.2735 189.136 47.8787 190.263 47.0521L189.671 46.2459ZM182.66 38.5221H181.66C181.66 39.9826 181.809 41.2712 182.131 42.3675L183.091 42.0856L184.05 41.8038C183.798 40.9442 183.66 39.8572 183.66 38.5221H182.66ZM183.091 42.0856L182.132 42.369C182.452 43.4541 182.945 44.3723 183.666 45.0346L184.342 44.2983L185.019 43.5621C184.646 43.2188 184.304 42.6619 184.05 41.8023L183.091 42.0856ZM184.342 44.2983L183.669 45.0379C184.41 45.712 185.309 46.0525 186.315 46.0525V45.0525V44.0525C185.795 44.0525 185.379 43.8902 185.015 43.5587L184.342 44.2983ZM186.315 45.0525V46.0525C187.324 46.0525 188.225 45.7132 188.964 45.0346L188.287 44.2983L187.61 43.5621C187.255 43.889 186.841 44.0525 186.315 44.0525V45.0525ZM188.287 44.2983L188.964 45.0346C189.684 44.3723 190.177 43.4541 190.497 42.369L189.538 42.0856L188.579 41.8023C188.325 42.6619 187.984 43.2188 187.61 43.5621L188.287 44.2983ZM189.538 42.0856L190.496 42.3725C190.825 41.2743 190.978 39.9839 190.978 38.5221H189.978H188.978C188.978 39.8559 188.837 40.9411 188.58 41.7988L189.538 42.0856ZM189.978 38.5221H190.978C190.978 37.0654 190.825 35.7778 190.496 34.68L189.538 34.9669L188.58 35.2537C188.837 36.1117 188.978 37.1943 188.978 38.5221H189.978ZM189.538 34.9669L190.496 34.68C190.17 33.5916 189.675 32.6715 188.955 32.0096L188.279 32.7459L187.602 33.4821C187.976 33.8258 188.321 34.3863 188.58 35.2537L189.538 34.9669ZM188.279 32.7459L188.955 32.0096C188.219 31.3324 187.32 30.9917 186.315 30.9917V31.9917V32.9917C186.834 32.9917 187.245 33.1538 187.602 33.4821L188.279 32.7459ZM186.315 31.9917V30.9917C185.312 30.9917 184.417 31.3337 183.682 32.0096L184.359 32.7459L185.036 33.4821C185.394 33.1525 185.803 32.9917 186.315 32.9917V31.9917ZM184.359 32.7459L183.682 32.0096C182.962 32.6715 182.467 33.5916 182.141 34.68L183.099 34.9669L184.057 35.2537C184.317 34.3863 184.662 33.8258 185.036 33.4821L184.359 32.7459ZM183.099 34.9669L182.141 34.68C181.812 35.7778 181.66 37.0654 181.66 38.5221H182.66H183.66C183.66 37.1943 183.8 36.1117 184.057 35.2537L183.099 34.9669ZM195.218 45.1271L194.508 44.4234L194.216 44.7176L194.218 45.1315L195.218 45.1271ZM201.102 39.1851L201.813 39.8888L201.823 39.8786L201.102 39.1851ZM203.597 36.0691L202.691 35.6449L202.689 35.65L203.597 36.0691ZM203.489 33.2514L202.657 33.8061V33.8061L203.489 33.2514ZM202.354 32.2983L201.923 33.2011L201.936 33.2069L202.354 32.2983ZM199.122 32.3315L199.586 33.2173L199.589 33.2153L199.122 32.3315ZM198.044 33.3757L197.172 32.8864L197.168 32.8946L198.044 33.3757ZM197.671 34.9586V35.9586H198.671V34.9586H197.671ZM195.218 34.9586H194.218V35.9586H195.218V34.9586ZM195.931 32.2652L195.078 31.7428L195.077 31.7445L195.931 32.2652ZM197.92 30.442L197.468 29.5499L197.466 29.5511L197.92 30.442ZM203.671 30.4254L204.119 29.531L203.671 30.4254ZM205.635 32.1575L204.793 32.696L204.798 32.7033L205.635 32.1575ZM206.356 34.6188L207.356 34.6273L207.356 34.62L207.356 34.6127L206.356 34.6188ZM205.983 36.4917L206.91 36.869V36.869L205.983 36.4917ZM204.74 38.489L203.958 37.8657L203.958 37.8664L204.74 38.489ZM202.262 41.1575L201.563 40.443L201.556 40.4496L201.549 40.4563L202.262 41.1575ZM198.815 44.663L198.102 43.9618L197.815 44.2536V44.663H198.815ZM198.815 44.7873H197.815V45.7873H198.815V44.7873ZM206.63 44.7873H207.63V43.7873H206.63V44.7873ZM206.63 47V48H207.63V47H206.63ZM195.227 47L194.227 47.0044L194.231 48H195.227V47ZM195.218 45.1271L195.929 45.8307L201.813 39.8887L201.102 39.1851L200.392 38.4815L194.508 44.4234L195.218 45.1271ZM201.102 39.1851L201.823 39.8786C202.542 39.1315 203.106 38.5143 203.505 38.0334L202.735 37.395L201.965 36.7567C201.613 37.1818 201.088 37.758 200.382 38.4915L201.102 39.1851ZM202.735 37.395L203.505 38.0334C203.923 37.5288 204.262 37.014 204.505 36.4881L203.597 36.0691L202.689 35.65C202.534 35.986 202.298 36.3552 201.965 36.7567L202.735 37.395ZM203.597 36.0691L204.502 36.4932C204.769 35.9244 204.903 35.321 204.903 34.6934H203.903H202.903C202.903 35.027 202.834 35.3408 202.691 35.6449L203.597 36.0691ZM203.903 34.6934H204.903C204.903 33.9692 204.718 33.2914 204.321 32.6967L203.489 33.2514L202.657 33.8061C202.813 34.0401 202.903 34.3236 202.903 34.6934H203.903ZM203.489 33.2514L204.321 32.6967C203.936 32.1186 203.409 31.6831 202.771 31.3898L202.354 32.2983L201.936 33.2069C202.259 33.3556 202.49 33.5555 202.657 33.8061L203.489 33.2514ZM202.354 32.2983L202.784 31.3957C202.159 31.0976 201.476 30.9586 200.754 30.9586V31.9586V32.9586C201.215 32.9586 201.598 33.0461 201.923 33.201L202.354 32.2983ZM200.754 31.9586V30.9586C199.999 30.9586 199.29 31.1111 198.654 31.4477L199.122 32.3315L199.589 33.2153C199.893 33.0546 200.272 32.9586 200.754 32.9586V31.9586ZM199.122 32.3315L198.658 31.4457C198.023 31.7778 197.522 32.2629 197.172 32.8864L198.044 33.3757L198.916 33.8649C199.075 33.5824 199.292 33.3714 199.586 33.2173L199.122 32.3315ZM198.044 33.3757L197.168 32.8946C196.826 33.5178 196.671 34.2161 196.671 34.9586H197.671H198.671C198.671 34.4966 198.766 34.1397 198.921 33.8568L198.044 33.3757ZM197.671 34.9586V33.9586H195.218V34.9586V35.9586H197.671V34.9586ZM195.218 34.9586H196.218C196.218 34.1041 196.416 33.3906 196.785 32.7859L195.931 32.2652L195.077 31.7445C194.496 32.6978 194.218 33.7798 194.218 34.9586H195.218ZM195.931 32.2652L196.784 32.7876C197.165 32.1654 197.688 31.6828 198.374 31.3329L197.92 30.442L197.466 29.5511C196.462 30.063 195.658 30.7959 195.078 31.7428L195.931 32.2652ZM197.92 30.442L198.372 31.3341C199.066 30.9825 199.869 30.7956 200.804 30.7956V29.7956V28.7956C199.595 28.7956 198.476 29.0396 197.468 29.5499L197.92 30.442ZM200.804 29.7956V30.7956C201.743 30.7956 202.542 30.9786 203.224 31.3198L203.671 30.4254L204.119 29.531C203.121 29.0324 202.009 28.7956 200.804 28.7956V29.7956ZM203.671 30.4254L203.224 31.3198C203.915 31.6654 204.428 32.125 204.793 32.696L205.635 32.1575L206.478 31.6189C205.904 30.7203 205.107 30.0252 204.119 29.531L203.671 30.4254ZM205.635 32.1575L204.798 32.7033C205.163 33.2641 205.352 33.8955 205.356 34.6248L206.356 34.6188L207.356 34.6127C207.35 33.5189 207.058 32.5094 206.473 31.6116L205.635 32.1575ZM206.356 34.6188L205.356 34.6103C205.352 35.1373 205.252 35.6363 205.057 36.1144L205.983 36.4917L206.91 36.869C207.201 36.1537 207.35 35.4042 207.356 34.6273L206.356 34.6188ZM205.983 36.4917L205.057 36.1144C204.863 36.5923 204.509 37.1747 203.958 37.8657L204.74 38.489L205.522 39.1122C206.143 38.3336 206.618 37.5845 206.91 36.869L205.983 36.4917ZM204.74 38.489L203.958 37.8664C203.414 38.55 202.621 39.4071 201.563 40.443L202.262 41.1575L202.962 41.8719C204.048 40.8084 204.907 39.8865 205.523 39.1115L204.74 38.489ZM202.262 41.1575L201.549 40.4563L198.102 43.9618L198.815 44.663L199.528 45.3642L202.975 41.8586L202.262 41.1575ZM198.815 44.663H197.815V44.7873H198.815H199.815V44.663H198.815ZM198.815 44.7873V45.7873H206.63V44.7873V43.7873H198.815V44.7873ZM206.63 44.7873H205.63V47H206.63H207.63V44.7873H206.63ZM206.63 47V46H195.227V47V48H206.63V47ZM195.227 47L196.227 46.9956L196.218 45.1226L195.218 45.1271L194.218 45.1315L194.227 47.0044L195.227 47Z" fill="#BEBEBE" mask="url(#path-2-outside-1_678_195)"/>
<path d="M36.5469 335L43.5195 315.203H47.8945L54.8945 335H51.0938L49.4395 330.105H41.9883L40.3477 335H36.5469ZM48.4824 327.234L45.7891 319.25H45.625L42.9453 327.234H48.4824ZM59.4008 335H55.8461V315.203H59.4008V335ZM81.325 337.434H78.2625V312.715H81.325V337.434ZM73.9422 315.34C73.9422 319.268 73.0535 322.718 71.2762 325.689C69.4988 328.652 66.5503 331.108 62.4305 333.059L60.8445 330.625C64.0255 329.112 66.4181 327.303 68.0223 325.197C69.6355 323.083 70.5789 320.599 70.8523 317.746H62.1023V315.34H73.9422ZM102.976 319.879H106.421V322.395H102.976V330.926H99.9406V312.742H102.976V319.879ZM103.96 336.941H87.1437V329.094H90.1789V334.48H103.96V336.941ZM87.3352 318.266H93.1047V314.492H96.1125V326.906H84.3273V314.492H87.3352V318.266ZM93.1047 324.5V320.617H87.3352V324.5H93.1047ZM45.6797 352.742C45.6797 354.036 45.9258 355.34 46.418 356.652C46.9193 357.965 47.6348 359.159 48.5645 360.234C49.5033 361.31 50.6016 362.139 51.8594 362.723L50.1641 365.129C48.806 364.491 47.6165 363.557 46.5957 362.326C45.5749 361.087 44.7773 359.669 44.2031 358.074C43.6289 359.815 42.8132 361.36 41.7559 362.709C40.6986 364.058 39.4727 365.065 38.0781 365.73L36.3008 363.352C37.5677 362.75 38.6797 361.88 39.6367 360.74C40.6029 359.601 41.3411 358.329 41.8516 356.926C42.3711 355.522 42.6354 354.128 42.6445 352.742V350.664H37.2578V348.148H50.8477V350.664H45.6797V352.742ZM56.1797 355.34H59.9805V357.883H56.1797V370.434H53.1445V345.715H56.1797V355.34ZM80.3188 363.871H77.2836V357.746H71.391C70.7986 358.421 70.074 358.945 69.2172 359.318C68.3695 359.692 67.4581 359.879 66.4828 359.879C65.2615 359.879 64.1495 359.605 63.1469 359.059C62.1534 358.512 61.3695 357.76 60.7953 356.803C60.2302 355.837 59.9477 354.757 59.9477 353.562C59.9477 352.35 60.2302 351.261 60.7953 350.295C61.3695 349.329 62.1534 348.577 63.1469 348.039C64.1404 347.492 65.2523 347.219 66.4828 347.219C67.4581 347.219 68.365 347.406 69.2035 347.779C70.0512 348.144 70.7758 348.659 71.3773 349.324H77.2836V345.742H80.3188V363.871ZM80.9477 369.941H64.1039V362.012H67.1391V367.48H80.9477V369.941ZM66.4828 349.926C65.7719 349.926 65.143 350.076 64.5961 350.377C64.0492 350.678 63.6208 351.102 63.3109 351.648C63.001 352.195 62.8461 352.833 62.8461 353.562C62.8461 354.283 63.001 354.916 63.3109 355.463C63.6208 356.01 64.0492 356.434 64.5961 356.734C65.143 357.026 65.7719 357.172 66.4828 357.172C67.1573 357.172 67.7634 357.021 68.3012 356.721C68.8389 356.42 69.2628 355.996 69.5727 355.449C69.8917 354.902 70.0557 354.273 70.0648 353.562C70.0557 352.842 69.8917 352.209 69.5727 351.662C69.2628 351.106 68.8389 350.678 68.3012 350.377C67.7634 350.076 67.1573 349.926 66.4828 349.926ZM72.7172 351.785C72.8813 352.396 72.9633 352.988 72.9633 353.562C72.9633 354.146 72.8858 354.72 72.7309 355.285H77.2836V351.785H72.7172ZM89.1727 347.52C90.2846 347.52 91.2872 347.816 92.1805 348.408C93.0737 349.001 93.8029 349.848 94.368 350.951C94.9331 352.045 95.284 353.335 95.4207 354.82H100.138V345.715H103.145V370.461H100.138V357.281H95.4617C95.3523 358.849 95.0197 360.216 94.4637 361.383C93.9077 362.54 93.174 363.434 92.2625 364.062C91.351 364.682 90.3211 364.992 89.1727 364.992C87.9331 364.992 86.8348 364.637 85.8777 363.926C84.9207 363.215 84.1733 362.199 83.6355 360.877C83.0978 359.555 82.8289 358.01 82.8289 356.242C82.8289 354.492 83.0978 352.961 83.6355 351.648C84.1733 350.327 84.9207 349.311 85.8777 348.6C86.8439 347.88 87.9422 347.52 89.1727 347.52ZM89.1727 350.254C88.4891 350.254 87.8875 350.495 87.368 350.979C86.8484 351.452 86.4474 352.141 86.1648 353.043C85.8823 353.936 85.7456 355.003 85.7547 356.242C85.7456 357.491 85.8823 358.566 86.1648 359.469C86.4474 360.371 86.8484 361.064 87.368 361.547C87.8875 362.021 88.4891 362.258 89.1727 362.258C89.8563 362.258 90.4533 362.021 90.9637 361.547C91.4832 361.064 91.8842 360.371 92.1668 359.469C92.4585 358.566 92.6089 357.491 92.618 356.242C92.6089 355.003 92.4585 353.932 92.1668 353.029C91.8842 352.127 91.4832 351.439 90.9637 350.965C90.4533 350.491 89.8563 350.254 89.1727 350.254ZM125.945 370.461H122.909V357.828H118.124V355.367H122.909V345.715H125.945V370.461ZM114.241 353.562C114.232 354.82 114.469 356.069 114.952 357.309C115.435 358.548 116.142 359.674 117.071 360.686C118.001 361.688 119.099 362.467 120.366 363.023L118.726 365.348C117.349 364.764 116.151 363.894 115.13 362.736C114.109 361.579 113.316 360.239 112.751 358.717C112.195 360.33 111.407 361.752 110.386 362.982C109.374 364.213 108.18 365.138 106.804 365.758L105.163 363.406C106.412 362.841 107.492 362.035 108.404 360.986C109.315 359.938 110.008 358.767 110.482 357.473C110.965 356.178 111.206 354.875 111.206 353.562V352.277H105.902V349.844H111.234V346.234H114.269V349.844H119.437V352.277H114.241V353.562ZM148.607 370.461H145.599V345.715H148.607V370.461ZM141.005 357.145H132.502V362.121C134.589 362.103 136.503 362.03 138.244 361.902C139.994 361.775 141.78 361.556 143.603 361.246L143.877 363.734C141.917 364.081 139.989 364.313 138.093 364.432C136.198 364.55 134.015 364.609 131.545 364.609H129.384V354.738H137.916V350.336H129.357V347.875H141.005V357.145Z" fill="#282828"/>
<path d="M32 39H60" stroke="#282828" stroke-linecap="round"/>
</svg>
