<svg width="240" height="411" viewBox="0 0 240 411" fill="none" xmlns="http://www.w3.org/2000/svg">
<rect width="240" height="411" fill="#585858"/>
<path d="M185.635 47.2735C184.331 47.2735 183.212 46.9309 182.279 46.2459C181.35 45.5608 180.64 44.5635 180.149 43.2541C179.657 41.9392 179.411 40.3619 179.411 38.5221C179.411 36.6934 179.657 35.1271 180.149 33.8232C180.646 32.5138 181.361 31.5166 182.295 30.8315C183.229 30.1409 184.342 29.7956 185.635 29.7956C186.928 29.7956 188.041 30.1409 188.975 30.8315C189.914 31.5166 190.629 32.5138 191.121 33.8232C191.618 35.1271 191.867 36.6934 191.867 38.5221C191.867 40.3619 191.621 41.9392 191.129 43.2541C190.638 44.5635 189.925 45.5608 188.991 46.2459C188.058 46.9309 186.939 47.2735 185.635 47.2735ZM181.98 38.5221C181.98 39.9199 182.124 41.1077 182.411 42.0856C182.698 43.058 183.116 43.7956 183.663 44.2983C184.215 44.8011 184.872 45.0525 185.635 45.0525C186.403 45.0525 187.06 44.8011 187.607 44.2983C188.154 43.7956 188.571 43.058 188.859 42.0856C189.152 41.1077 189.298 39.9199 189.298 38.5221C189.298 37.1298 189.152 35.9448 188.859 34.9669C188.566 33.989 188.146 33.2486 187.599 32.7459C187.052 32.2431 186.397 31.9917 185.635 31.9917C184.878 31.9917 184.226 32.2431 183.679 32.7459C183.132 33.2486 182.712 33.989 182.419 34.9669C182.127 35.9448 181.98 37.1298 181.98 38.5221ZM200.729 47.232C199.58 47.232 198.522 46.9779 197.555 46.4696C196.588 45.9558 195.798 45.0939 195.185 43.884C194.577 42.6685 194.273 41.0663 194.273 39.0773C194.273 37.1326 194.541 35.4641 195.077 34.0718C195.613 32.6796 196.378 31.6188 197.373 30.8895C198.367 30.1602 199.541 29.7956 200.895 29.7956C201.917 29.7956 202.834 29.9945 203.646 30.3923C204.464 30.7845 205.127 31.3315 205.635 32.0331C206.144 32.7348 206.464 33.5359 206.597 34.4365H204.052C203.87 33.7182 203.505 33.1409 202.958 32.7044C202.412 32.268 201.724 32.0497 200.895 32.0497C200.028 32.0497 199.282 32.2928 198.657 32.779C198.039 33.2652 197.566 33.9696 197.24 34.8923C196.914 35.8094 196.751 36.9033 196.751 38.174H196.942C197.4 37.4503 198.011 36.8867 198.773 36.4834C199.536 36.0801 200.378 35.8785 201.301 35.8785C202.301 35.8785 203.218 36.1188 204.052 36.5994C204.887 37.0746 205.547 37.7376 206.033 38.5884C206.519 39.4337 206.762 40.3867 206.762 41.4475C206.762 42.5304 206.511 43.5138 206.008 44.3978C205.505 45.2762 204.795 45.9696 203.878 46.4779C202.961 46.9807 201.912 47.232 200.729 47.232ZM197.066 41.5221C197.066 42.1464 197.221 42.732 197.53 43.279C197.845 43.8204 198.276 44.2541 198.823 44.5801C199.376 44.9061 199.992 45.0691 200.671 45.0691C201.34 45.0691 201.947 44.9116 202.494 44.5967C203.041 44.2762 203.472 43.8425 203.787 43.2956C204.102 42.7486 204.26 42.1464 204.26 41.4889C204.26 40.8481 204.105 40.2597 203.795 39.7238C203.492 39.1823 203.069 38.7541 202.528 38.4392C201.992 38.1243 201.389 37.9669 200.721 37.9669C200.052 37.9669 199.439 38.1298 198.881 38.4558C198.323 38.7818 197.881 39.2182 197.555 39.7652C197.235 40.3066 197.072 40.8923 197.066 41.5221Z" fill="#EFF2F5"/>
<path d="M45.6523 351.648C45.6432 353.125 45.8757 354.574 46.3496 355.996C46.8327 357.409 47.5299 358.676 48.4414 359.797C49.3529 360.918 50.4284 361.775 51.668 362.367L49.8086 364.801C48.4961 364.135 47.3568 363.188 46.3906 361.957C45.4336 360.727 44.6862 359.305 44.1484 357.691C43.5924 359.414 42.8086 360.936 41.7969 362.258C40.7943 363.57 39.6003 364.573 38.2148 365.266L36.3555 362.832C37.6406 362.221 38.7526 361.333 39.6914 360.166C40.6393 358.99 41.3594 357.664 41.8516 356.188C42.3529 354.702 42.6081 353.189 42.6172 351.648V347.711H45.6523V351.648ZM56.1797 355.395H59.9805V357.992H56.1797V370.434H53.1445V345.715H56.1797V355.395ZM80.182 370.461H77.1195V345.715H80.182V370.461ZM66.8656 347.52C68.1052 347.52 69.2081 347.88 70.1742 348.6C71.1495 349.311 71.9151 350.327 72.4711 351.648C73.0271 352.961 73.3096 354.492 73.3188 356.242C73.3096 358.001 73.0271 359.542 72.4711 360.863C71.9242 362.185 71.1632 363.206 70.1879 363.926C69.2126 364.637 68.1052 364.992 66.8656 364.992C65.6169 364.992 64.5049 364.637 63.5297 363.926C62.5544 363.206 61.7888 362.185 61.2328 360.863C60.6859 359.542 60.4125 358.001 60.4125 356.242C60.4125 354.492 60.6859 352.961 61.2328 351.648C61.7888 350.327 62.5544 349.311 63.5297 348.6C64.5049 347.88 65.6169 347.52 66.8656 347.52ZM66.8656 350.254C66.1638 350.254 65.544 350.491 65.0063 350.965C64.4776 351.439 64.0674 352.127 63.7758 353.029C63.4841 353.932 63.3383 355.003 63.3383 356.242C63.3383 357.491 63.4841 358.566 63.7758 359.469C64.0674 360.371 64.4776 361.064 65.0063 361.547C65.544 362.021 66.1638 362.258 66.8656 362.258C67.5583 362.258 68.169 362.021 68.6977 361.547C69.2263 361.064 69.6365 360.371 69.9281 359.469C70.2198 358.566 70.3656 357.491 70.3656 356.242C70.3656 355.003 70.2198 353.936 69.9281 353.043C69.6365 352.141 69.2263 351.452 68.6977 350.979C68.169 350.495 67.5583 350.254 66.8656 350.254ZM103.145 370.461H100.138V357.062H95.1063V364.473H83.3484V347.629H86.4109V353.781H92.1258V347.629H95.1063V354.574H100.138V345.715H103.145V370.461ZM92.1258 362.039V356.16H86.4109V362.039H92.1258ZM127.804 367.453H105.218V364.965H114.952V360.152H107.706V347.355H110.741V351.402H122.198V347.355H125.234V360.152H117.96V364.965H127.804V367.453ZM122.198 357.691V353.836H110.741V357.691H122.198ZM147.513 352.961H150.959V355.477H147.513V363.789H144.478V345.715H147.513V352.961ZM148.498 369.941H131.681V361.902H134.716V367.48H148.498V369.941ZM134.963 347.355C136.202 347.355 137.328 347.624 138.339 348.162C139.351 348.691 140.149 349.429 140.732 350.377C141.324 351.325 141.625 352.396 141.634 353.59C141.625 354.766 141.324 355.827 140.732 356.775C140.149 357.714 139.347 358.452 138.326 358.99C137.314 359.528 136.193 359.797 134.963 359.797C133.723 359.797 132.593 359.528 131.572 358.99C130.551 358.452 129.744 357.714 129.152 356.775C128.569 355.827 128.282 354.766 128.291 353.59C128.282 352.405 128.569 351.339 129.152 350.391C129.744 349.434 130.551 348.691 131.572 348.162C132.593 347.624 133.723 347.355 134.963 347.355ZM134.963 350.008C134.27 350.008 133.641 350.158 133.076 350.459C132.511 350.751 132.064 351.17 131.736 351.717C131.417 352.255 131.262 352.879 131.271 353.59C131.262 354.283 131.417 354.898 131.736 355.436C132.064 355.973 132.511 356.388 133.076 356.68C133.641 356.971 134.27 357.117 134.963 357.117C135.655 357.117 136.28 356.971 136.836 356.68C137.401 356.388 137.843 355.973 138.162 355.436C138.49 354.898 138.654 354.283 138.654 353.59C138.654 352.879 138.49 352.255 138.162 351.717C137.843 351.17 137.401 350.751 136.836 350.459C136.28 350.158 135.655 350.008 134.963 350.008Z" fill="#EFF2F5"/>
<path d="M32 39H60" stroke="#EFF2F5" stroke-linecap="round"/>
</svg>
