<svg width="240" height="411" viewBox="0 0 240 411" fill="none" xmlns="http://www.w3.org/2000/svg">
<rect width="240" height="411" fill="black"/>
<path d="M189.83 47.2735C188.526 47.2735 187.408 46.9309 186.474 46.2459C185.546 45.5608 184.836 44.5635 184.344 43.2541C183.852 41.9392 183.606 40.3619 183.606 38.5221C183.606 36.6934 183.852 35.1271 184.344 33.8232C184.841 32.5138 185.557 31.5166 186.49 30.8315C187.424 30.1409 188.537 29.7956 189.83 29.7956C191.123 29.7956 192.236 30.1409 193.17 30.8315C194.109 31.5166 194.825 32.5138 195.316 33.8232C195.814 35.1271 196.062 36.6934 196.062 38.5221C196.062 40.3619 195.816 41.9392 195.325 43.2541C194.833 44.5635 194.12 45.5608 193.187 46.2459C192.253 46.9309 191.134 47.2735 189.83 47.2735ZM186.176 38.5221C186.176 39.9199 186.319 41.1077 186.606 42.0856C186.894 43.058 187.311 43.7956 187.858 44.2983C188.41 44.8011 189.068 45.0525 189.83 45.0525C190.598 45.0525 191.256 44.8011 191.803 44.2983C192.35 43.7956 192.767 43.058 193.054 42.0856C193.347 41.1077 193.493 39.9199 193.493 38.5221C193.493 37.1298 193.347 35.9448 193.054 34.9669C192.761 33.989 192.341 33.2486 191.794 32.7459C191.247 32.2431 190.593 31.9917 189.83 31.9917C189.073 31.9917 188.421 32.2431 187.874 32.7459C187.327 33.2486 186.908 33.989 186.615 34.9669C186.322 35.9448 186.176 37.1298 186.176 38.5221ZM205.181 47H202.596V32.6133H202.496L198.444 35.2569V32.7956L202.662 30.0276H205.181V47Z" fill="#EFF2F5"/>
<path d="M36.5469 335L43.5195 315.203H47.8945L54.8945 335H51.0938L49.4395 330.105H41.9883L40.3477 335H36.5469ZM48.4824 327.234L45.7891 319.25H45.625L42.9453 327.234H48.4824ZM59.4008 335H55.8461V315.203H59.4008V335ZM83.2664 334.453H60.6805V331.965H70.4148V327.152H63.1688V314.355H66.2039V318.402H77.6609V314.355H80.6961V327.152H73.4227V331.965H83.2664V334.453ZM77.6609 324.691V320.836H66.2039V324.691H77.6609ZM102.976 319.961H106.421V322.477H102.976V330.789H99.9406V312.715H102.976V319.961ZM103.96 336.941H87.1437V328.902H90.1789V334.48H103.96V336.941ZM90.425 314.355C91.6646 314.355 92.7902 314.624 93.802 315.162C94.8137 315.691 95.6112 316.429 96.1945 317.377C96.787 318.325 97.0878 319.396 97.0969 320.59C97.0878 321.766 96.787 322.827 96.1945 323.775C95.6112 324.714 94.8091 325.452 93.7883 325.99C92.7766 326.528 91.6555 326.797 90.425 326.797C89.1854 326.797 88.0552 326.528 87.0344 325.99C86.0135 325.452 85.2069 324.714 84.6145 323.775C84.0311 322.827 83.744 321.766 83.7531 320.59C83.744 319.405 84.0311 318.339 84.6145 317.391C85.2069 316.434 86.0135 315.691 87.0344 315.162C88.0552 314.624 89.1854 314.355 90.425 314.355ZM90.425 317.008C89.7323 317.008 89.1034 317.158 88.5383 317.459C87.9732 317.751 87.5266 318.17 87.1984 318.717C86.8794 319.255 86.7245 319.879 86.7336 320.59C86.7245 321.283 86.8794 321.898 87.1984 322.436C87.5266 322.973 87.9732 323.388 88.5383 323.68C89.1034 323.971 89.7323 324.117 90.425 324.117C91.1177 324.117 91.7421 323.971 92.298 323.68C92.8632 323.388 93.3052 322.973 93.6242 322.436C93.9523 321.898 94.1164 321.283 94.1164 320.59C94.1164 319.879 93.9523 319.255 93.6242 318.717C93.3052 318.17 92.8632 317.751 92.298 317.459C91.7421 317.158 91.1177 317.008 90.425 317.008ZM124.703 324.527H112.781V314.246H124.703V324.527ZM115.789 322.148H121.695V316.652H115.789V322.148ZM132.059 326.797H129.051V312.715H132.059V326.797ZM132.578 330.543H125.523C125.624 331.199 126.011 331.842 126.686 332.471C127.369 333.1 128.299 333.646 129.475 334.111C130.65 334.576 131.995 334.882 133.508 335.027L132.469 337.352C130.509 337.151 128.786 336.691 127.301 335.971C125.824 335.251 124.699 334.362 123.924 333.305C123.149 334.362 122.014 335.246 120.52 335.957C119.025 336.668 117.284 337.133 115.297 337.352L114.258 335.027C115.78 334.9 117.133 334.608 118.318 334.152C119.503 333.697 120.438 333.15 121.121 332.512C121.814 331.865 122.206 331.208 122.297 330.543H115.27V328.246H122.379V326.086H125.441V328.246H132.578V330.543ZM45.6797 350.09C45.6706 351.184 45.8893 352.236 46.3359 353.248C46.7917 354.251 47.4661 355.139 48.3594 355.914C49.2526 356.689 50.3281 357.281 51.5859 357.691L50 360.098C48.651 359.642 47.4889 358.972 46.5137 358.088C45.5475 357.195 44.7865 356.142 44.2305 354.93C43.6654 356.27 42.8724 357.427 41.8516 358.402C40.8398 359.378 39.6276 360.116 38.2148 360.617L36.5195 358.211C37.8411 357.783 38.9577 357.158 39.8691 356.338C40.7806 355.508 41.4642 354.556 41.9199 353.48C42.3848 352.396 42.6172 351.257 42.6172 350.062V347.246H45.6797V350.09ZM56.3164 353.016H59.7617V355.586H56.3164V363.871H53.2812V345.715H56.3164V353.016ZM57.3008 369.941H40.4844V362.094H43.6016V367.48H57.3008V369.941ZM66.4828 346.809C67.5401 346.799 68.5108 346.986 69.3949 347.369C70.279 347.743 71.0173 348.276 71.6098 348.969C72.2113 349.652 72.6124 350.445 72.8129 351.348H77.2836V345.715H80.3188V358.977H77.2836V353.809H72.8402C72.6397 354.729 72.2387 355.54 71.6371 356.242C71.0447 356.944 70.3018 357.491 69.4086 357.883C68.5154 358.266 67.5401 358.457 66.4828 358.457C65.2341 358.457 64.113 358.206 63.1195 357.705C62.126 357.204 61.3467 356.511 60.7816 355.627C60.2257 354.734 59.9477 353.727 59.9477 352.605C59.9477 351.493 60.2257 350.495 60.7816 349.611C61.3467 348.727 62.126 348.039 63.1195 347.547C64.113 347.046 65.2341 346.799 66.4828 346.809ZM66.4828 349.352C65.7719 349.352 65.143 349.484 64.5961 349.748C64.0492 350.012 63.6208 350.391 63.3109 350.883C63.001 351.375 62.8461 351.949 62.8461 352.605C62.8461 353.253 63.001 353.827 63.3109 354.328C63.6208 354.82 64.0492 355.203 64.5961 355.477C65.1521 355.75 65.781 355.887 66.4828 355.887C67.1664 355.887 67.7771 355.75 68.3148 355.477C68.8617 355.203 69.2855 354.82 69.5863 354.328C69.8962 353.827 70.0557 353.253 70.0648 352.605C70.0557 351.949 69.8962 351.375 69.5863 350.883C69.2855 350.391 68.8663 350.012 68.3285 349.748C67.7908 349.484 67.1755 349.352 66.4828 349.352ZM67.0297 362.75H77.2836V360.125H80.3188V370.133H64.0219V360.125H67.0297V362.75ZM77.2836 367.672V365.102H67.0297V367.672H77.2836ZM104.95 360.043H82.4188V357.609H87.6688V354.479C86.7299 354.077 86.0053 353.567 85.4949 352.947C84.9936 352.327 84.743 351.621 84.743 350.828C84.743 349.853 85.103 349.014 85.823 348.312C86.5522 347.602 87.5867 347.059 88.9266 346.686C90.2755 346.312 91.8523 346.125 93.657 346.125C95.4617 346.125 97.034 346.312 98.3738 346.686C99.7137 347.059 100.744 347.602 101.464 348.312C102.193 349.014 102.562 349.853 102.571 350.828C102.562 351.63 102.302 352.341 101.792 352.961C101.29 353.581 100.566 354.087 99.618 354.479V357.609H104.95V360.043ZM93.657 361.547C95.4344 361.538 96.9611 361.706 98.2371 362.053C99.5132 362.39 100.493 362.891 101.177 363.557C101.86 364.213 102.207 365.01 102.216 365.949C102.207 366.897 101.86 367.699 101.177 368.355C100.493 369.021 99.5132 369.522 98.2371 369.859C96.9611 370.206 95.4344 370.379 93.657 370.379C91.8615 370.379 90.3165 370.206 89.0223 369.859C87.7371 369.522 86.7527 369.021 86.0691 368.355C85.3855 367.699 85.0438 366.897 85.0438 365.949C85.0438 365.01 85.3855 364.213 86.0691 363.557C86.7527 362.891 87.7371 362.39 89.0223 362.053C90.3165 361.706 91.8615 361.538 93.657 361.547ZM93.657 363.844C91.8432 363.844 90.4669 364.021 89.5281 364.377C88.5893 364.732 88.1245 365.257 88.1336 365.949C88.1245 366.642 88.5893 367.171 89.5281 367.535C90.476 367.9 91.8523 368.082 93.657 368.082C95.4253 368.082 96.7833 367.9 97.7313 367.535C98.6883 367.171 99.1714 366.642 99.1805 365.949C99.1714 365.257 98.6928 364.732 97.7449 364.377C96.797 364.021 95.4344 363.844 93.657 363.844ZM93.657 348.477C91.8159 348.477 90.394 348.682 89.3914 349.092C88.3979 349.493 87.9057 350.072 87.9148 350.828C87.9057 351.576 88.3979 352.145 89.3914 352.537C90.3849 352.929 91.8068 353.125 93.657 353.125C95.4891 353.125 96.9064 352.929 97.909 352.537C98.9207 352.145 99.4266 351.576 99.4266 350.828C99.4266 350.072 98.9207 349.493 97.909 349.092C96.9064 348.682 95.4891 348.477 93.657 348.477ZM96.5828 357.609V355.258C95.6622 355.385 94.687 355.449 93.657 355.449C92.6271 355.449 91.6518 355.385 90.7313 355.258V357.609H96.5828ZM110.189 368L117.162 348.203H121.537L128.537 368H124.736L123.082 363.105H115.63L113.99 368H110.189ZM122.125 360.234L119.431 352.25H119.267L116.588 360.234H122.125ZM133.043 368H129.488V348.203H133.043V368Z" fill="#EFF2F5"/>
<path d="M32 39H60" stroke="white" stroke-linecap="round"/>
</svg>
