<svg width="240" height="411" viewBox="0 0 240 411" fill="none" xmlns="http://www.w3.org/2000/svg">
<rect width="240" height="411" fill="#7A7A7A"/>
<path d="M186.033 47.2735C184.729 47.2735 183.611 46.9309 182.677 46.2459C181.749 45.5608 181.039 44.5635 180.547 43.2541C180.055 41.9392 179.81 40.3619 179.81 38.5221C179.81 36.6934 180.055 35.1271 180.547 33.8232C181.044 32.5138 181.76 31.5166 182.694 30.8315C183.627 30.1409 184.741 29.7956 186.033 29.7956C187.326 29.7956 188.439 30.1409 189.373 30.8315C190.312 31.5166 191.028 32.5138 191.52 33.8232C192.017 35.1271 192.265 36.6934 192.265 38.5221C192.265 40.3619 192.02 41.9392 191.528 43.2541C191.036 44.5635 190.323 45.5608 189.39 46.2459C188.456 46.9309 187.337 47.2735 186.033 47.2735ZM182.379 38.5221C182.379 39.9199 182.522 41.1077 182.81 42.0856C183.097 43.058 183.514 43.7956 184.061 44.2983C184.613 44.8011 185.271 45.0525 186.033 45.0525C186.801 45.0525 187.459 44.8011 188.006 44.2983C188.553 43.7956 188.97 43.058 189.257 42.0856C189.55 41.1077 189.696 39.9199 189.696 38.5221C189.696 37.1298 189.55 35.9448 189.257 34.9669C188.964 33.989 188.544 33.2486 187.997 32.7459C187.45 32.2431 186.796 31.9917 186.033 31.9917C185.276 31.9917 184.625 32.2431 184.078 32.7459C183.531 33.2486 183.111 33.989 182.818 34.9669C182.525 35.9448 182.379 37.1298 182.379 38.5221ZM200.722 47.232C199.661 47.232 198.699 47.0331 197.838 46.6354C196.976 46.232 196.291 45.6768 195.782 44.9696C195.28 44.2569 195.012 43.4558 194.978 42.5663H197.49C197.528 43.0414 197.694 43.4696 197.987 43.8508C198.285 44.232 198.672 44.5304 199.147 44.7459C199.628 44.9613 200.152 45.0691 200.722 45.0691C201.396 45.0691 202.001 44.9199 202.536 44.6215C203.078 44.3177 203.498 43.9006 203.796 43.3702C204.1 42.8343 204.252 42.232 204.252 41.5635C204.252 40.8785 204.092 40.2652 203.771 39.7238C203.456 39.1768 203.02 38.7514 202.462 38.4475C201.904 38.1381 201.274 37.9834 200.572 37.9834C199.152 37.9834 198.164 38.4807 197.606 39.4751H195.177L196.288 30.0276H205.901V32.2403H198.426L197.846 36.9807H198.012C198.376 36.6381 198.84 36.3646 199.404 36.1602C199.973 35.9558 200.572 35.8536 201.202 35.8536C202.257 35.8536 203.208 36.0967 204.053 36.5829C204.898 37.0635 205.559 37.7348 206.034 38.5967C206.514 39.453 206.755 40.4227 206.755 41.5055C206.755 42.605 206.498 43.5884 205.984 44.4558C205.47 45.3232 204.755 46.0028 203.838 46.4945C202.92 46.9862 201.882 47.232 200.722 47.232Z" fill="#EFF2F5"/>
<path d="M59.6797 318.512H56.3164V321.328H59.6797V323.844H56.3164V327.234H53.2812V312.715H56.3164V316.023H59.6797V318.512ZM43.7656 314.137C45.0234 314.128 46.1582 314.374 47.1699 314.875C48.1816 315.367 48.9746 316.064 49.5488 316.967C50.1322 317.869 50.4284 318.895 50.4375 320.043C50.4284 321.182 50.1322 322.203 49.5488 323.105C48.9746 323.999 48.1816 324.701 47.1699 325.211C46.1582 325.712 45.0234 325.967 43.7656 325.977C42.4987 325.967 41.3548 325.712 40.334 325.211C39.3223 324.701 38.5247 323.999 37.9414 323.105C37.3672 322.203 37.0846 321.182 37.0938 320.043C37.0846 318.895 37.3672 317.874 37.9414 316.98C38.5247 316.078 39.3223 315.376 40.334 314.875C41.3548 314.374 42.4987 314.128 43.7656 314.137ZM43.7656 316.68C43.0547 316.68 42.4167 316.821 41.8516 317.104C41.2956 317.386 40.8581 317.783 40.5391 318.293C40.2201 318.794 40.0651 319.378 40.0742 320.043C40.0651 320.708 40.2155 321.296 40.5254 321.807C40.8444 322.308 41.2865 322.7 41.8516 322.982C42.4167 323.256 43.0547 323.397 43.7656 323.406C44.4674 323.397 45.0964 323.256 45.6523 322.982C46.2174 322.7 46.6595 322.308 46.9785 321.807C47.2975 321.296 47.457 320.708 47.457 320.043C47.457 319.378 47.2975 318.794 46.9785 318.293C46.6595 317.783 46.2174 317.386 45.6523 317.104C45.0964 316.821 44.4674 316.68 43.7656 316.68ZM48.2773 327.809C49.9544 327.809 51.4128 328 52.6523 328.383C53.901 328.766 54.8626 329.322 55.5371 330.051C56.2116 330.771 56.5534 331.628 56.5625 332.621C56.5534 333.615 56.2116 334.471 55.5371 335.191C54.8626 335.911 53.901 336.458 52.6523 336.832C51.4128 337.215 49.9544 337.406 48.2773 337.406C46.582 337.406 45.1009 337.215 43.834 336.832C42.5762 336.458 41.6055 335.911 40.9219 335.191C40.2474 334.471 39.9102 333.615 39.9102 332.621C39.9102 331.628 40.252 330.771 40.9355 330.051C41.6191 329.322 42.5898 328.766 43.8477 328.383C45.1055 328 46.582 327.809 48.2773 327.809ZM48.2773 330.242C46.5729 330.242 45.2559 330.447 44.3262 330.857C43.4056 331.258 42.9453 331.846 42.9453 332.621C42.9453 333.396 43.4056 333.984 44.3262 334.385C45.2467 334.777 46.5638 334.973 48.2773 334.973C49.9818 334.973 51.2852 334.777 52.1875 334.385C53.099 333.984 53.5547 333.396 53.5547 332.621C53.5547 331.846 53.099 331.258 52.1875 330.857C51.2852 330.447 49.9818 330.242 48.2773 330.242ZM68.4789 319.742C68.4789 321.036 68.725 322.34 69.2172 323.652C69.7185 324.965 70.434 326.159 71.3637 327.234C72.3025 328.31 73.4008 329.139 74.6586 329.723L72.9633 332.129C71.6052 331.491 70.4158 330.557 69.3949 329.326C68.3741 328.087 67.5766 326.669 67.0023 325.074C66.4281 326.815 65.6124 328.36 64.5551 329.709C63.4978 331.058 62.2719 332.065 60.8773 332.73L59.1 330.352C60.3669 329.75 61.4789 328.88 62.4359 327.74C63.4021 326.601 64.1404 325.329 64.6508 323.926C65.1703 322.522 65.4346 321.128 65.4438 319.742V317.664H60.057V315.148H73.6469V317.664H68.4789V319.742ZM78.9789 322.34H82.7797V324.883H78.9789V337.434H75.9438V312.715H78.9789V322.34ZM95.4344 314.027C95.4161 317.382 94.4956 320.175 92.6727 322.408C90.8497 324.641 87.9878 326.35 84.0867 327.535L82.9109 325.102C86.3927 324.099 88.8901 322.654 90.4031 320.768L83.3211 321.301L82.8563 318.895L91.6609 318.566C91.8979 317.91 92.0665 317.208 92.1668 316.461H84.1141V314.027H95.4344ZM103.118 326.879H100.083V321.52H95.2977V319.004H100.083V312.742H103.118V326.879ZM103.118 337.133H86.8484V328.055H103.118V337.133ZM89.8289 334.672H100.11V330.461H89.8289V334.672ZM125.753 316.406H122.308V322.258H125.562V324.719H107.405V322.258H110.687V316.406H107.296V313.945H125.753V316.406ZM127.777 329.531H122.39V337.434H119.355V329.531H113.777V337.434H110.687V329.531H105.191V327.043H127.777V329.531ZM119.3 322.258V316.406H113.722V322.258H119.3ZM141.334 316.898H132.474V319.25H140.623V321.629H132.474V324.008H134.005C136.002 324.008 137.683 323.967 139.05 323.885C140.427 323.803 141.798 323.643 143.166 323.406L143.466 325.812C141.908 326.068 140.34 326.241 138.763 326.332C137.186 326.423 135.227 326.469 132.884 326.469H131.49H129.384V314.492H141.334V316.898ZM148.607 327.809H145.545V312.742H148.607V327.809ZM140.267 328.164C141.999 328.164 143.498 328.346 144.765 328.711C146.032 329.076 147.007 329.604 147.691 330.297C148.375 330.99 148.716 331.819 148.716 332.785C148.716 333.751 148.375 334.581 147.691 335.273C147.007 335.966 146.032 336.495 144.765 336.859C143.498 337.224 141.999 337.406 140.267 337.406C138.517 337.406 137.004 337.224 135.728 336.859C134.461 336.495 133.49 335.966 132.816 335.273C132.142 334.581 131.809 333.751 131.818 332.785C131.809 331.819 132.142 330.99 132.816 330.297C133.49 329.604 134.461 329.076 135.728 328.711C137.004 328.346 138.517 328.164 140.267 328.164ZM140.267 330.516C138.517 330.516 137.173 330.712 136.234 331.104C135.295 331.495 134.835 332.056 134.853 332.785C134.844 333.523 135.304 334.089 136.234 334.48C137.164 334.863 138.508 335.055 140.267 335.055C141.99 335.055 143.321 334.859 144.259 334.467C145.207 334.075 145.681 333.514 145.681 332.785C145.681 332.065 145.207 331.509 144.259 331.117C143.311 330.716 141.981 330.516 140.267 330.516ZM169.241 324.527H157.319V314.246H169.241V324.527ZM160.327 322.148H166.233V316.652H160.327V322.148ZM176.596 326.797H173.588V312.715H176.596V326.797ZM177.116 330.543H170.061C170.161 331.199 170.549 331.842 171.223 332.471C171.907 333.1 172.836 333.646 174.012 334.111C175.188 334.576 176.532 334.882 178.045 335.027L177.006 337.352C175.047 337.151 173.324 336.691 171.838 335.971C170.362 335.251 169.236 334.362 168.461 333.305C167.687 334.362 166.552 335.246 165.057 335.957C163.562 336.668 161.821 337.133 159.834 337.352L158.795 335.027C160.317 334.9 161.671 334.608 162.856 334.152C164.041 333.697 164.975 333.15 165.659 332.512C166.351 331.865 166.743 331.208 166.834 330.543H159.807V328.246H166.916V326.086H169.979V328.246H177.116V330.543ZM56.3164 351.43H59.7617V353.891H56.3164V359.852H53.2812V345.715H56.3164V351.43ZM56.3164 370.133H40.3477V360.945H56.3164V370.133ZM43.3555 367.672H53.3086V363.352H43.3555V367.672ZM43.7656 347.137C45.0234 347.128 46.1582 347.374 47.1699 347.875C48.1816 348.367 48.9746 349.064 49.5488 349.967C50.1322 350.869 50.4284 351.895 50.4375 353.043C50.4284 354.182 50.1322 355.203 49.5488 356.105C48.9746 356.999 48.1816 357.701 47.1699 358.211C46.1582 358.712 45.0234 358.967 43.7656 358.977C42.4987 358.967 41.3548 358.712 40.334 358.211C39.3223 357.701 38.5247 356.999 37.9414 356.105C37.3672 355.203 37.0846 354.182 37.0938 353.043C37.0846 351.895 37.3672 350.874 37.9414 349.98C38.5247 349.078 39.3223 348.376 40.334 347.875C41.3548 347.374 42.4987 347.128 43.7656 347.137ZM43.7656 349.68C43.0547 349.68 42.4167 349.821 41.8516 350.104C41.2956 350.386 40.8581 350.783 40.5391 351.293C40.2201 351.794 40.0651 352.378 40.0742 353.043C40.0651 353.708 40.2155 354.296 40.5254 354.807C40.8444 355.308 41.2865 355.7 41.8516 355.982C42.4167 356.256 43.0547 356.397 43.7656 356.406C44.4674 356.397 45.0964 356.256 45.6523 355.982C46.2174 355.7 46.6595 355.308 46.9785 354.807C47.2975 354.296 47.457 353.708 47.457 353.043C47.457 352.378 47.2975 351.794 46.9785 351.293C46.6595 350.783 46.2174 350.386 45.6523 350.104C45.0964 349.821 44.4674 349.68 43.7656 349.68ZM81.057 351.484H60.6313V349.023H69.3539V346.043H72.3617V349.023H81.057V351.484ZM82.2055 367.781H59.6195V365.32H69.3539V362.285C67.9229 362.167 66.6924 361.907 65.6625 361.506C64.6417 361.096 63.8578 360.553 63.3109 359.879C62.7732 359.195 62.5089 358.402 62.518 357.5C62.5089 356.516 62.837 355.668 63.5023 354.957C64.1768 354.237 65.143 353.69 66.4008 353.316C67.6586 352.934 69.1443 352.742 70.8578 352.742C72.544 352.742 74.0115 352.934 75.2602 353.316C76.518 353.69 77.4841 354.237 78.1586 354.957C78.8331 355.668 79.1703 356.516 79.1703 357.5C79.1703 358.393 78.8969 359.182 78.35 359.865C77.8031 360.54 77.0193 361.082 75.9984 361.492C74.9776 361.893 73.7654 362.153 72.3617 362.271V365.32H82.2055V367.781ZM70.8578 355.121C69.1534 355.139 67.8546 355.349 66.9613 355.75C66.0681 356.142 65.626 356.725 65.6352 357.5C65.626 358.284 66.0681 358.876 66.9613 359.277C67.8546 359.678 69.1534 359.888 70.8578 359.906C72.5349 359.888 73.8201 359.678 74.7133 359.277C75.6065 358.876 76.0531 358.284 76.0531 357.5C76.0531 356.725 75.6065 356.142 74.7133 355.75C73.8201 355.349 72.5349 355.139 70.8578 355.121ZM99.7219 352.086H87.6086V349.652H92.2023V346.426H95.2102V349.652H99.7219V352.086ZM93.7062 353.398C94.7453 353.398 95.6704 353.645 96.4816 354.137C97.302 354.62 97.94 355.299 98.3957 356.174C98.8605 357.049 99.093 358.038 99.093 359.141C99.093 360.262 98.8605 361.264 98.3957 362.148C97.94 363.033 97.302 363.725 96.4816 364.227C95.6704 364.719 94.7453 364.965 93.7062 364.965C92.6763 364.965 91.7512 364.719 90.9309 364.227C90.1105 363.725 89.468 363.033 89.0031 362.148C88.5383 361.264 88.3104 360.262 88.3195 359.141C88.3104 358.038 88.5383 357.049 89.0031 356.174C89.468 355.299 90.1105 354.62 90.9309 354.137C91.7512 353.645 92.6763 353.398 93.7062 353.398ZM93.7062 355.914C93.1685 355.914 92.6945 356.051 92.2844 356.324C91.8742 356.589 91.5552 356.967 91.3273 357.459C91.0995 357.942 90.9901 358.503 90.9992 359.141C90.9901 359.797 91.0995 360.371 91.3273 360.863C91.5552 361.355 91.8742 361.734 92.2844 361.998C92.6945 362.253 93.1685 362.376 93.7062 362.367C94.2349 362.376 94.7043 362.253 95.1145 361.998C95.5246 361.734 95.8436 361.355 96.0715 360.863C96.2993 360.371 96.4133 359.797 96.4133 359.141C96.4133 358.503 96.2993 357.942 96.0715 357.459C95.8436 356.967 95.5246 356.589 95.1145 356.324C94.7043 356.051 94.2349 355.914 93.7062 355.914ZM108.909 370.434H106.011V358.348H103.605V369.312H100.761V346.234H103.605V355.887H106.011V345.715H108.909V370.434ZM132.994 360.234H110.463V357.801H120.197V355.34H113.224V346.727H130.287V349.133H116.259V352.879H130.505V355.34H123.232V357.801H132.994V360.234ZM130.287 370.516H127.279V364.609H112.951V362.176H130.287V370.516Z" fill="#EFF2F5"/>
<path d="M32 39H60" stroke="#EFF2F5" stroke-linecap="round"/>
</svg>
