<svg width="10" height="18" viewBox="0 0 10 18" fill="none" xmlns="http://www.w3.org/2000/svg">
<path d="M0.21934 17.779C0.346328 17.9061 0.514682 17.9833 0.693791 17.9967C0.8729 18.0101 1.05087 17.9588 1.19534 17.852L1.27934 17.779L9.52934 9.52905C9.65636 9.40206 9.73359 9.23371 9.74698 9.0546C9.76038 8.87549 9.70906 8.69752 9.60234 8.55305L9.52934 8.46905L1.27934 0.219046C1.14534 0.0860884 0.966134 0.00855081 0.777483 0.00190748C0.588831 -0.00473584 0.404612 0.0600053 0.261592 0.183207C0.118571 0.306408 0.0272684 0.479012 0.0059058 0.666567C-0.0154568 0.854122 0.0346917 1.04284 0.146343 1.19505L0.219343 1.27905L7.93934 8.99905L0.21934 16.719C0.0788896 16.8597 1.65838e-07 17.0503 1.31087e-07 17.249C9.63367e-08 17.4478 0.0788894 17.6384 0.21934 17.779Z" fill="black"/>
</svg>
